<svg width="376" height="365" viewBox="0 0 376 365" fill="none" xmlns="http://www.w3.org/2000/svg">
<g clip-path="url(#clip0_16_1687)">
<path d="M68.0858 109.123H68.4298C69.7393 109.13 71.0023 108.639 71.9623 107.75C72.9223 106.862 73.5075 105.642 73.599 104.338C74.3958 91.4056 77.2444 78.681 82.0387 66.6391C82.2846 66.013 82.4038 65.3446 82.3896 64.6723C82.3754 64 82.2279 63.3371 81.9557 62.722C81.6836 62.1068 81.2921 61.5514 80.8038 61.0879C80.3155 60.6244 79.7401 60.262 79.1108 60.0214C77.8297 59.5366 76.41 59.5673 75.1512 60.107C73.8924 60.6467 72.8929 61.6532 72.3636 62.9142C67.1918 75.9492 64.1106 89.7159 63.2333 103.708C63.1599 105.067 63.6293 106.4 64.5388 107.415C65.4482 108.43 66.7237 109.044 68.0858 109.123Z" fill="#68ECFF"/>
<path d="M81.1045 55.7801C82.3156 56.4201 83.7298 56.5608 85.0436 56.172C86.3575 55.7831 87.4661 54.8958 88.1315 53.7004C90.0619 50.1731 92.1694 46.7453 94.4459 43.4298C94.8272 42.8756 95.0939 42.251 95.2304 41.5926C95.3668 40.9343 95.3704 40.2554 95.2407 39.5957C95.1111 38.936 94.8509 38.3087 94.4754 37.7505C94.0999 37.1923 93.6166 36.7145 93.0538 36.3449C91.9116 35.5875 90.5175 35.3069 89.1703 35.5633C87.8232 35.8197 86.6305 36.5927 85.848 37.7164C83.3746 41.3167 81.0862 45.0401 78.9917 48.8722C78.6698 49.4629 78.4691 50.1117 78.4013 50.7806C78.3334 51.4495 78.3998 52.1253 78.5965 52.7683C78.7932 53.4114 79.1163 54.0089 79.547 54.526C79.9776 55.0431 80.5072 55.4695 81.1048 55.7801" fill="#9EF4FF"/>
<path d="M193.922 10.5838H194.303L194.605 10.558C197.683 10.3182 200.793 10.2107 203.843 10.2107C204.519 10.216 205.188 10.0884 205.814 9.83523C206.44 9.58204 207.01 9.20823 207.491 8.73515C207.972 8.26208 208.355 7.69903 208.618 7.07819C208.881 6.45736 209.019 5.79091 209.023 5.11696C209.015 3.7535 208.464 2.44913 207.493 1.48989C206.522 0.530652 205.209 -0.00515292 203.843 -2.45578e-05C200.383 -2.45578e-05 196.892 0.133508 193.513 0.401814C192.84 0.448152 192.182 0.626324 191.578 0.926155C190.974 1.22599 190.435 1.6416 189.992 2.14927C189.549 2.65693 189.211 3.2467 188.996 3.88489C188.782 4.52308 188.695 5.19719 188.742 5.86872C188.854 7.16026 189.449 8.36245 190.409 9.23612C191.369 10.1098 192.623 10.5909 193.922 10.5838" fill="#B0A1BB"/>
<path d="M140.896 27.3344C141.862 27.3491 142.81 27.0806 143.624 26.5623C154.353 20.0396 166.122 15.3982 178.421 12.8391C179.084 12.7037 179.713 12.4388 180.273 12.0598C180.832 11.6808 181.312 11.1951 181.682 10.6307C182.053 10.0663 182.309 9.43433 182.434 8.77107C182.559 8.10782 182.552 7.4264 182.412 6.76601C182.102 5.43656 181.282 4.2813 180.128 3.54783C178.974 2.81437 177.579 2.56107 176.24 2.84222C162.776 5.675 149.892 10.77 138.139 17.9097C137.567 18.2605 137.07 18.7206 136.676 19.2636C136.283 19.8066 136.001 20.4218 135.846 21.0739C135.691 21.726 135.667 22.4022 135.775 23.0635C135.883 23.7249 136.121 24.3585 136.475 24.9279C136.953 25.6648 137.607 26.271 138.38 26.6912C139.152 27.1114 140.017 27.3323 140.896 27.334" fill="#7CB3E5"/>
<path d="M84.9961 128.431C85.0821 129.262 85.1967 130.093 85.311 130.924C88.5555 152.953 102.768 173.007 123.412 184.581C123.44 184.581 123.469 184.608 123.498 184.638C125.507 185.755 127.602 186.786 129.699 187.731C130.946 188.291 132.363 188.341 133.646 187.869C134.93 187.398 135.976 186.443 136.561 185.209C136.845 184.599 137.005 183.939 137.03 183.266C137.055 182.594 136.945 181.923 136.707 181.294C136.469 180.664 136.108 180.089 135.644 179.6C135.18 179.112 134.623 178.721 134.006 178.45C132.142 177.625 130.321 176.708 128.55 175.7C128.507 175.693 128.467 175.673 128.435 175.643C119.713 170.747 112.176 163.999 106.357 155.875C100.73 148.042 97.0407 138.991 95.5911 129.463C95.4764 128.746 95.3891 128.06 95.3031 127.344C94.8465 123.205 94.6164 119.045 94.6138 114.881C94.6138 83.341 107.649 55.1238 131.307 35.4134C131.824 34.9834 132.249 34.4552 132.56 33.8597C132.87 33.2642 133.059 32.6132 133.115 31.9443C133.171 31.2755 133.093 30.6022 132.887 29.9635C132.68 29.3248 132.348 28.7334 131.911 28.2236C131.013 27.1861 129.742 26.5418 128.373 26.4292C127.004 26.3167 125.645 26.7448 124.589 27.6216C98.9501 48.9922 84.2498 80.7915 84.2498 114.881C84.2571 119.408 84.5064 123.931 84.9965 128.432" fill="#90E867"/>
<path d="M114.454 90.3016C115.745 90.7466 117.16 90.6726 118.397 90.0953C119.635 89.5179 120.599 88.4826 121.085 87.2085C121.746 85.3454 122.492 83.4836 123.296 81.649C123.331 81.6058 123.361 81.5582 123.384 81.5074C131.71 63.1283 146.327 48.3101 164.611 39.7099C165.219 39.4246 165.763 39.022 166.214 38.5255C166.664 38.0289 167.012 37.4482 167.236 36.8169C167.46 36.1856 167.557 35.5163 167.52 34.8475C167.484 34.1787 167.315 33.5238 167.023 32.9205C166.41 31.6933 165.337 30.7562 164.037 30.3115C162.737 29.8668 161.313 29.9503 160.074 30.5439C139.627 40.1646 123.274 56.7255 113.937 77.2679C113.908 77.2965 113.908 77.3536 113.879 77.4109C112.932 79.5015 112.071 81.6493 111.295 83.7699C111.071 84.4056 110.974 85.0794 111.011 85.7524C111.048 86.4255 111.219 87.0846 111.512 87.6917C111.806 88.2988 112.217 88.842 112.722 89.29C113.227 89.7379 113.815 90.0818 114.454 90.3018" fill="#8DF3FF"/>
<path d="M176.813 24.3272C176.16 24.5042 175.549 24.8086 175.015 25.2228C174.481 25.637 174.035 26.1527 173.701 26.7401C173.368 27.3276 173.155 27.9751 173.075 28.6452C172.994 29.3153 173.047 29.9948 173.231 30.6442C173.416 31.2937 173.727 31.9002 174.147 32.4289C174.568 32.9575 175.09 33.3976 175.682 33.7239C176.274 34.0501 176.925 34.256 177.597 34.3296C178.27 34.4031 178.95 34.343 179.599 34.1525C188.23 31.8309 197.132 30.6652 206.07 30.6862C222.967 30.7573 239.626 34.6561 254.792 42.0886C256.023 42.6981 257.446 42.7992 258.751 42.3703C260.057 41.9413 261.141 41.0167 261.768 39.7965C262.07 39.1937 262.248 38.5371 262.292 37.8649C262.336 37.1928 262.247 36.5185 262.027 35.8814C261.808 35.2443 261.464 34.657 261.016 34.1537C260.567 33.6504 260.022 33.2412 259.414 32.9499C242.807 24.8174 224.569 20.5469 206.07 20.4593C196.189 20.4433 186.35 21.7441 176.813 24.3272" fill="#ADCAFF"/>
<path d="M273.132 53.1919C274.233 53.9984 275.605 54.3459 276.958 54.1606C278.31 53.9752 279.538 53.2718 280.38 52.1991C280.788 51.6638 281.086 51.0527 281.255 50.4014C281.424 49.7501 281.462 49.0717 281.365 48.4058C281.269 47.7399 281.041 47.0999 280.694 46.523C280.347 45.9462 279.888 45.4441 279.344 45.046L279.318 45.0188C278.207 44.2431 276.841 43.9194 275.499 44.1138C274.157 44.3081 272.939 45.0058 272.095 46.0647C271.687 46.5979 271.389 47.207 271.221 47.8563C271.052 48.5057 271.014 49.1821 271.111 49.846C271.208 50.5099 271.436 51.1479 271.783 51.7224C272.13 52.297 272.589 52.7966 273.132 53.192" fill="#5CFE88"/>
<path d="M307.064 127.338C306.404 121.396 305.153 115.534 303.33 109.84C302.885 108.553 301.958 107.489 300.743 106.869C299.529 106.25 298.121 106.124 296.816 106.518C296.169 106.711 295.568 107.032 295.046 107.46C294.525 107.888 294.095 108.415 293.78 109.012C293.465 109.608 293.273 110.26 293.214 110.931C293.155 111.603 293.23 112.279 293.436 112.92C295.044 117.972 296.149 123.169 296.734 128.437C296.878 129.697 297.483 130.86 298.435 131.701C299.386 132.542 300.616 133.001 301.887 132.992C302.069 132.996 302.252 132.988 302.433 132.966C303.108 132.901 303.764 132.704 304.362 132.386C304.961 132.068 305.49 131.635 305.921 131.112C306.351 130.589 306.674 129.987 306.87 129.339C307.066 128.691 307.132 128.011 307.064 127.338" fill="#72CC63"/>
<path d="M274.229 66.1811C274.2 66.1525 274.2 66.1239 274.172 66.0953C256.858 51.0266 235.096 42.1166 212.874 41.0569C211.513 40.998 210.182 41.4705 209.164 42.3741C208.146 43.2777 207.52 44.5414 207.42 45.8974C207.39 46.5717 207.494 47.2453 207.727 47.8791C207.959 48.513 208.315 49.0946 208.774 49.5903C209.233 50.086 209.786 50.4859 210.401 50.7671C211.016 51.0482 211.681 51.2049 212.357 51.2281C232.649 52.3775 251.969 60.2855 267.224 73.6868C267.224 73.6868 267.252 73.714 267.281 73.7441C268.832 75.0896 270.354 76.5222 271.817 77.9825C272.793 78.9499 274.11 79.4953 275.486 79.5009C276.861 79.5066 278.184 78.9719 279.167 78.0125C279.649 77.5462 280.033 76.9885 280.297 76.3721C280.56 75.7556 280.697 75.0929 280.699 74.4229C280.702 73.7528 280.57 73.0891 280.312 72.4705C280.054 71.852 279.674 71.2913 279.196 70.8212C277.617 69.2172 275.923 67.6411 274.229 66.181" fill="#99FCBA"/>
<path d="M297.025 94.8569C295.561 92.1057 293.982 89.3846 292.26 86.7777C291.496 85.6428 290.32 84.8495 288.979 84.566C287.639 84.2824 286.241 84.5311 285.082 85.2592C284.511 85.619 284.017 86.0884 283.629 86.6402C283.242 87.192 282.968 87.8151 282.823 88.4734C282.679 89.1316 282.667 89.812 282.789 90.4748C282.91 91.1377 283.163 91.7698 283.531 92.3346C285.077 94.6594 286.505 97.0599 287.81 99.5272C288.246 100.367 288.905 101.07 289.715 101.56C290.526 102.051 291.456 102.308 292.403 102.305C293.231 102.299 294.046 102.103 294.785 101.732C295.389 101.432 295.926 101.015 296.367 100.505C296.807 99.995 297.141 99.4028 297.35 98.7629C297.558 98.1229 297.637 97.4479 297.581 96.7772C297.525 96.1066 297.336 95.4537 297.025 94.8567" fill="#64F6A9"/>
<path d="M158.525 119.751C158.738 110.136 161.803 100.8 167.332 92.9217C172.861 85.0438 180.607 78.9782 189.59 75.4914C190.221 75.249 190.796 74.8835 191.283 74.4163C191.77 73.9491 192.159 73.3895 192.426 72.7704C192.694 72.1513 192.835 71.4852 192.84 70.8111C192.846 70.1371 192.717 69.4686 192.461 68.8449C191.932 67.5859 190.927 66.5854 189.665 66.06C188.402 65.5346 186.982 65.5267 185.714 66.0379C174.827 70.241 165.442 77.5834 158.754 87.1292C152.066 96.675 148.378 107.992 148.16 119.637V119.835C148.132 120.324 148.132 120.839 148.132 121.384C148.132 123.13 148.189 124.907 148.361 126.683C148.468 127.968 149.057 129.165 150.009 130.035C150.962 130.906 152.208 131.386 153.5 131.381C153.644 131.381 153.787 131.353 153.932 131.353C154.607 131.306 155.266 131.125 155.871 130.823C156.477 130.52 157.016 130.101 157.459 129.59C157.901 129.079 158.239 128.486 158.451 127.844C158.663 127.203 158.747 126.526 158.696 125.853C158.582 124.363 158.496 122.844 158.496 121.412C158.496 120.896 158.524 120.409 158.524 119.893L158.525 119.751Z" fill="#95E1F4"/>
<path d="M210.52 61.397C207.863 61.3902 205.207 61.5431 202.568 61.8546C201.894 61.9216 201.24 62.1216 200.645 62.4432C200.05 62.7647 199.524 63.2012 199.1 63.7274C198.675 64.2535 198.359 64.8587 198.172 65.5078C197.984 66.1568 197.927 66.8366 198.005 67.5077C198.083 68.1787 198.294 68.8275 198.626 69.4163C198.958 70.0051 199.404 70.5221 199.939 70.9372C200.473 71.3523 201.084 71.6571 201.738 71.834C202.391 72.0108 203.073 72.0561 203.745 71.9672C205.995 71.7273 208.257 71.6027 210.52 71.594C242.963 71.594 272.163 97.0914 275.551 128.432C276.007 132.57 276.237 136.729 276.239 140.892C276.369 158.249 272.124 175.361 263.894 190.653C263.578 191.247 263.383 191.897 263.321 192.566C263.258 193.236 263.329 193.911 263.529 194.553C263.729 195.195 264.055 195.791 264.487 196.306C264.919 196.822 265.449 197.248 266.046 197.558C267.263 198.197 268.683 198.332 269.999 197.936C271.315 197.539 272.423 196.642 273.082 195.437C282.099 178.672 286.758 159.918 286.632 140.892C286.625 136.366 286.376 131.843 285.885 127.343C281.924 90.9895 248.132 61.3967 210.52 61.3967" fill="#CBC3D9"/>
<path d="M201.734 46.1281C201.64 45.4595 201.414 44.816 201.07 44.2348C200.726 43.6535 200.269 43.146 199.728 42.7413C199.186 42.3366 198.569 42.0428 197.914 41.8768C197.258 41.7108 196.575 41.6758 195.906 41.774C155.222 47.3022 126.828 79.1586 126.828 119.207C126.829 122.289 127.001 125.369 127.344 128.432C128.837 142.211 141.644 153.44 155.912 153.44C169.492 153.44 180.144 143.185 180.144 130.065C180.154 129.156 180.106 128.247 180.001 127.344C179.862 126.078 179.794 124.806 179.799 123.533C179.799 105.6 193.954 92.0495 212.731 92.0495C226.225 92.0495 239.518 99.0964 247.499 110.442C248.287 111.561 249.484 112.327 250.832 112.573C252.181 112.82 253.572 112.527 254.706 111.759C255.266 111.383 255.744 110.9 256.114 110.337C256.484 109.775 256.738 109.145 256.861 108.483C256.984 107.822 256.974 107.142 256.83 106.485C256.687 105.828 256.414 105.205 256.026 104.655C246.179 90.5895 229.584 81.8511 212.731 81.8511C188.039 81.8511 169.435 99.7842 169.435 123.533C169.435 125.169 169.521 126.804 169.693 128.432C169.75 128.974 169.779 129.519 169.779 130.065C169.779 137.571 163.807 143.242 155.912 143.242C146.783 143.242 138.6 136.108 137.652 127.344C137.365 124.641 137.221 121.925 137.221 119.208C137.221 84.3726 161.941 56.6988 197.313 51.8873C197.983 51.7998 198.628 51.5813 199.213 51.2443C199.798 50.9073 200.311 50.4585 200.721 49.9236C201.132 49.3886 201.433 48.7781 201.607 48.1269C201.781 47.4758 201.824 46.7968 201.734 46.1289" fill="#C2F973"/>
<path d="M180.288 212.998C180.664 213.003 181.039 212.964 181.407 212.884C218.874 204.919 244.025 174.238 244.025 136.568C244.021 133.486 243.857 130.408 243.537 127.343C242.016 113.535 229.21 102.333 214.97 102.333C201.36 102.333 190.709 112.589 190.709 125.71C190.705 126.447 190.743 127.183 190.824 127.915C190.819 128.088 190.829 128.26 190.852 128.431C190.992 129.687 191.059 130.95 191.054 132.213C191.065 135.625 190.541 139.017 189.502 142.268C189.294 142.907 189.214 143.582 189.269 144.252C189.324 144.922 189.512 145.575 189.822 146.172C190.131 146.769 190.557 147.299 191.074 147.73C191.591 148.162 192.189 148.486 192.833 148.685C194.139 149.082 195.549 148.96 196.768 148.347C197.987 147.733 198.922 146.675 199.379 145.391C200.763 141.135 201.461 136.687 201.447 132.213C201.457 130.758 201.38 129.304 201.217 127.858C201.222 127.685 201.213 127.513 201.19 127.343C201.133 126.8 201.104 126.255 201.104 125.71C201.104 118.204 207.047 112.531 214.971 112.531C224.071 112.531 232.254 119.665 233.201 128.431C233.512 131.132 233.666 133.849 233.661 136.567C233.661 169.339 211.783 195.982 179.197 202.914C177.953 203.169 176.848 203.877 176.099 204.901C175.35 205.925 175.011 207.191 175.147 208.451C175.283 209.711 175.886 210.875 176.836 211.716C177.787 212.557 179.018 213.014 180.288 212.998" fill="#78F3E2"/>
<path d="M262.663 202.825C261.546 202.045 260.174 201.716 258.824 201.905C257.473 202.093 256.245 202.786 255.385 203.842C249.74 211.243 243.111 217.841 235.68 223.456C235.142 223.859 234.689 224.366 234.349 224.946C234.009 225.526 233.788 226.168 233.699 226.834C233.61 227.5 233.655 228.177 233.831 228.826C234.007 229.474 234.311 230.081 234.725 230.612C235.213 231.235 235.838 231.739 236.552 232.082C237.266 232.426 238.05 232.602 238.843 232.595C239.981 232.589 241.087 232.223 242.003 231.55C250.188 225.372 257.487 218.105 263.698 209.952C264.105 209.419 264.402 208.81 264.571 208.16C264.74 207.511 264.777 206.835 264.68 206.172C264.584 205.508 264.356 204.87 264.01 204.295C263.663 203.721 263.206 203.221 262.663 202.825" fill="#D3D366"/>
<path d="M235.613 201.31C234.658 200.33 233.357 199.763 231.988 199.731C230.619 199.699 229.292 200.204 228.292 201.138C211.754 216.579 189.187 225.087 164.812 225.087C153.255 225.073 141.773 223.236 130.79 219.645C129.492 219.209 128.073 219.305 126.846 219.912C125.618 220.519 124.682 221.587 124.244 222.882C124.028 223.52 123.941 224.194 123.989 224.865C124.037 225.536 124.219 226.191 124.524 226.791C124.828 227.391 125.25 227.924 125.764 228.36C126.278 228.795 126.874 229.124 127.517 229.327C139.557 233.26 152.144 235.271 164.812 235.286C191.858 235.286 216.951 225.804 235.441 208.53C235.933 208.07 236.328 207.517 236.603 206.904C236.879 206.29 237.029 205.628 237.045 204.956C237.061 204.283 236.943 203.615 236.697 202.989C236.451 202.363 236.082 201.792 235.613 201.31" fill="#A3E777"/>
<path d="M239.374 197.128C240.485 197.936 241.87 198.275 243.23 198.071C244.589 197.867 245.813 197.137 246.637 196.039C258.918 179.463 265.477 159.358 265.328 138.745C265.328 136.969 265.27 135.191 265.184 133.387C265.098 131.382 264.926 129.377 264.697 127.344C264.448 125.042 264.025 122.763 263.433 120.524C263.074 119.208 262.21 118.086 261.028 117.4C259.847 116.714 258.442 116.519 257.117 116.857C256.463 117.02 255.847 117.311 255.305 117.712C254.764 118.113 254.306 118.616 253.96 119.194C253.613 119.771 253.384 120.411 253.285 121.077C253.186 121.743 253.22 122.422 253.384 123.074C253.849 124.834 254.185 126.624 254.389 128.432C254.589 130.264 254.734 132.099 254.82 133.903C254.906 135.536 254.934 137.141 254.934 138.745C255.08 157.179 249.227 175.163 238.254 189.994C237.853 190.534 237.564 191.149 237.404 191.801C237.243 192.454 237.214 193.131 237.319 193.795C237.423 194.459 237.658 195.095 238.011 195.667C238.364 196.24 238.827 196.736 239.374 197.128" fill="#66ECAF"/>
<path d="M118.883 215.016C114.317 212.922 109.884 210.55 105.609 207.915C104.442 207.217 103.052 206.993 101.724 207.287C100.396 207.581 99.2316 208.371 98.4701 209.496C98.109 210.063 97.8641 210.696 97.7495 211.358C97.6348 212.021 97.6528 212.699 97.8022 213.354C97.9517 214.009 98.2297 214.629 98.6202 215.176C99.0108 215.724 99.5061 216.189 100.078 216.544C104.729 219.411 109.553 221.988 114.523 224.261C115.206 224.579 115.95 224.744 116.703 224.745C117.69 224.742 118.657 224.462 119.491 223.935C120.326 223.409 120.994 222.658 121.419 221.769C121.701 221.16 121.86 220.501 121.885 219.831C121.91 219.16 121.801 218.492 121.565 217.864C121.33 217.235 120.971 216.66 120.511 216.171C120.05 215.683 119.497 215.29 118.883 215.016" fill="#D1E559"/>
<path d="M94.243 199.876C92.8276 198.751 91.438 197.598 90.1016 196.447C89.0593 195.575 87.7223 195.134 86.3645 195.213C85.0067 195.293 83.7307 195.887 82.7977 196.874C82.3416 197.366 81.9903 197.945 81.7653 198.576C81.5402 199.207 81.446 199.878 81.4884 200.546C81.5246 201.216 81.6953 201.872 81.9902 202.475C82.2852 203.078 82.6985 203.615 83.2055 204.056C84.7029 205.369 86.2044 206.629 87.7032 207.808C88.7738 208.669 90.142 209.074 91.51 208.933C92.878 208.793 94.1349 208.119 95.0072 207.058C95.4329 206.538 95.751 205.938 95.9431 205.295C96.1352 204.651 96.1975 203.976 96.1264 203.308C96.0553 202.64 95.8522 201.993 95.5289 201.404C95.2056 200.815 94.7685 200.296 94.2428 199.876" fill="#EFEF70"/>
<path d="M162.573 214.831C163.205 214.831 163.864 214.831 164.496 214.803C165.172 214.798 165.84 214.66 166.462 214.397C167.084 214.133 167.648 213.749 168.121 213.267C168.593 212.785 168.965 212.214 169.215 211.588C169.465 210.961 169.589 210.292 169.578 209.617C169.528 208.259 168.947 206.974 167.96 206.037C166.973 205.1 165.658 204.586 164.296 204.604C163.778 204.604 163.234 204.634 162.716 204.634C142.905 204.48 123.696 197.826 108.052 185.697C106.415 184.437 104.807 183.119 103.256 181.743C102.224 180.847 100.881 180.387 99.5144 180.462C98.1476 180.537 96.8639 181.141 95.9359 182.145C95.4844 182.641 95.1364 183.222 94.9119 183.853C94.6875 184.485 94.5911 185.155 94.6284 185.824C94.6658 186.493 94.8361 187.148 95.1294 187.751C95.4228 188.353 95.8333 188.892 96.3372 189.335C98.0598 190.855 99.8398 192.344 101.677 193.748C119.363 207.355 141.012 214.831 162.573 214.831" fill="#8DB6FF"/>
<path d="M86.4605 176.271C87.5758 176.283 88.6645 175.932 89.5616 175.27C90.1079 174.877 90.5698 174.379 90.9199 173.804C91.2701 173.23 91.5015 172.592 91.6004 171.927C91.6994 171.262 91.664 170.584 91.4962 169.933C91.3285 169.282 91.0318 168.671 90.6236 168.136C81.5443 156.27 75.8501 142.175 74.1442 127.343C73.8562 124.765 73.6269 122.129 73.5122 119.521C73.4183 118.168 72.7963 116.906 71.7799 116.006C70.7634 115.106 69.4337 114.64 68.0763 114.707C66.719 114.775 65.4424 115.371 64.5209 116.368C63.5993 117.364 63.1064 118.682 63.1479 120.037C63.2912 122.816 63.5208 125.653 63.8072 128.431C65.7244 145.074 72.1129 160.891 82.2972 174.21C82.7806 174.855 83.4093 175.378 84.1325 175.736C84.8557 176.094 85.6531 176.278 86.4605 176.272" fill="#4BCFFF"/>
<path d="M150.026 193.633C150.83 193.747 151.634 193.862 152.409 193.947H152.553C155.127 194.232 157.715 194.376 160.304 194.377H160.362C170.888 194.418 181.272 191.953 190.652 187.188C199.7 182.558 207.41 175.693 213.046 167.248C214.35 165.255 215.538 163.188 216.606 161.06C216.9 160.453 217.071 159.793 217.109 159.12C217.147 158.447 217.051 157.773 216.827 157.137C216.603 156.501 216.255 155.915 215.803 155.414C215.352 154.912 214.805 154.504 214.195 154.214C212.96 153.623 211.541 153.541 210.246 153.986C208.951 154.431 207.883 155.367 207.275 156.591C206.39 158.341 205.412 160.043 204.347 161.69H204.318C194.901 175.985 178.88 184.179 160.333 184.179H160.304C158.127 184.178 155.952 184.063 153.787 183.836C153.758 183.836 153.729 183.806 153.672 183.806C152.955 183.721 152.237 183.634 151.519 183.548C150.851 183.439 150.167 183.463 149.507 183.62C148.848 183.777 148.227 184.063 147.679 184.462C147.132 184.861 146.67 185.364 146.319 185.943C145.969 186.522 145.737 187.164 145.638 187.833C145.539 188.502 145.574 189.184 145.742 189.84C145.91 190.495 146.206 191.11 146.615 191.65C147.023 192.19 147.535 192.643 148.121 192.983C148.706 193.324 149.354 193.544 150.026 193.632" fill="#1BEEAC"/>
<path d="M212.099 139.661C212.036 140.333 212.107 141.01 212.307 141.654C212.507 142.299 212.832 142.897 213.264 143.416C213.696 143.935 214.227 144.364 214.825 144.678C215.423 144.992 216.077 145.186 216.751 145.248C216.923 145.248 217.095 145.276 217.266 145.276C218.546 145.278 219.781 144.808 220.735 143.957C221.689 143.105 222.294 141.933 222.434 140.663C222.52 139.833 222.578 139.003 222.635 138.171C222.694 136.91 222.751 135.651 222.751 134.39C222.745 132.036 222.61 129.683 222.348 127.343C222.187 125.993 221.5 124.76 220.434 123.912C219.369 123.064 218.012 122.669 216.657 122.812C215.301 122.955 214.057 123.625 213.193 124.677C212.33 125.729 211.916 127.078 212.041 128.432C212.242 130.438 212.357 132.441 212.357 134.39C212.357 135.45 212.328 136.511 212.271 137.54C212.213 138.258 212.156 138.973 212.099 139.661Z" fill="#8AFFBE"/>
<path d="M106.415 103.708C105.826 108.124 105.538 112.575 105.553 117.03C105.554 120.838 105.756 124.644 106.157 128.431C107.68 140.944 113.834 152.439 123.412 160.659C133.002 169.11 145.329 173.82 158.123 173.923H158.152C168.837 174.05 179.208 170.316 187.35 163.41C187.861 162.973 188.28 162.439 188.581 161.838C188.881 161.237 189.059 160.582 189.101 159.911C189.144 159.241 189.052 158.569 188.83 157.935C188.608 157.3 188.261 156.717 187.81 156.219C186.906 155.272 185.688 154.686 184.383 154.57C183.078 154.454 181.775 154.817 180.719 155.59V155.56L180.488 155.731C174.459 160.945 166.736 163.696 158.123 163.696H157.949C147.713 163.589 137.866 159.771 130.244 152.953C122.378 146.02 117.468 136.939 116.492 127.344C116.115 123.919 115.923 120.476 115.917 117.03C115.91 113.024 116.179 109.023 116.721 105.054C116.876 103.702 116.492 102.343 115.652 101.271C114.812 100.199 113.583 99.4989 112.231 99.3223C110.879 99.1457 109.511 99.5066 108.423 100.327C107.335 101.148 106.613 102.362 106.414 103.708" fill="#59CFEF"/>
<path d="M-0.000104628 258.259C-0.00452088 258.054 0.0331293 257.851 0.110521 257.661C0.187912 257.472 0.303401 257.3 0.449856 257.157C0.593366 257.011 0.765396 256.896 0.955315 256.818C1.14523 256.741 1.34901 256.704 1.55404 256.708H18.0762C21.8222 256.673 25.5366 257.395 28.9956 258.83C32.2714 260.192 35.2352 262.205 37.7066 264.746C40.2074 267.35 42.1795 270.413 43.5141 273.765C46.3497 281.175 46.3497 289.369 43.5141 296.779C42.1801 300.131 40.2079 303.194 37.7066 305.798C35.2357 308.34 32.2718 310.353 28.9956 311.715C25.5368 313.151 21.8223 313.872 18.0762 313.837H1.55404C1.34899 313.841 1.14518 313.804 0.955235 313.727C0.765293 313.649 0.593277 313.534 0.449856 313.388C0.303218 313.245 0.187608 313.073 0.110203 312.884C0.0327984 312.694 -0.00474786 312.491 -0.000104628 312.286V258.259ZM10.2242 266.746V303.799H18.3215C20.6317 303.829 22.9206 303.355 25.0284 302.411C27.011 301.512 28.7808 300.204 30.2221 298.575C31.7108 296.867 32.8501 294.884 33.5756 292.74C35.1573 287.9 35.1573 282.685 33.5756 277.845C32.8564 275.686 31.7168 273.689 30.2221 271.97C28.7806 270.34 27.0108 269.033 25.0284 268.133C22.9205 267.189 20.6316 266.716 18.3215 266.746L10.2242 266.746Z" fill="#17E2AD"/>
<path d="M73.9409 282.171C73.8754 282.37 73.7687 282.552 73.6278 282.707C73.4869 282.862 73.315 282.985 73.1232 283.069C72.9258 283.15 72.7128 283.184 72.5001 283.17C72.2875 283.156 72.0809 283.093 71.8959 282.988C71.3852 282.743 70.8508 282.552 70.3009 282.416C69.6462 282.25 68.9729 282.167 68.2972 282.171C67.1125 282.168 65.9409 282.419 64.8616 282.906C63.7793 283.39 62.7952 284.067 61.9581 284.905C61.1114 285.751 60.4317 286.748 59.9545 287.844C59.4687 288.936 59.2178 290.117 59.2181 291.312L59.0546 312.287C59.0657 312.693 58.9191 313.087 58.6455 313.388C58.5117 313.536 58.3472 313.652 58.1635 313.73C57.9799 313.807 57.7815 313.844 57.5822 313.837H51.1204C50.9157 313.839 50.7126 313.801 50.523 313.724C50.3334 313.647 50.1611 313.533 50.0164 313.388C49.8716 313.244 49.7572 313.072 49.6799 312.883C49.6026 312.694 49.564 312.491 49.5663 312.287V274.581C49.5638 274.377 49.6023 274.174 49.6795 273.985C49.7568 273.796 49.8712 273.624 50.016 273.479C50.1608 273.335 50.3331 273.221 50.5228 273.144C50.7125 273.067 50.9157 273.028 51.1204 273.031H57.5822C57.7814 273.024 57.9796 273.061 58.1632 273.138C58.3468 273.216 58.5114 273.332 58.6455 273.479C58.9186 273.78 59.0651 274.175 59.0546 274.581V276.785C60.6263 275.647 62.3289 274.702 64.1259 273.969C65.9707 273.226 67.9439 272.851 69.9334 272.867C71.8592 272.822 73.7674 273.242 75.4953 274.092C75.834 274.253 76.0987 274.536 76.2354 274.885C76.3721 275.233 76.3707 275.621 76.2313 275.968L73.9409 282.171Z" fill="#17E2AD"/>
<path d="M84.9826 298.004C85.695 299.841 86.8969 301.45 88.4586 302.656C89.9879 303.845 91.8777 304.478 93.8161 304.451C95.2658 304.455 96.705 304.207 98.0691 303.717C99.3431 303.281 100.513 302.586 101.505 301.677C101.655 301.546 101.831 301.446 102.02 301.383C102.21 301.32 102.41 301.295 102.609 301.309C102.994 301.327 103.358 301.487 103.631 301.758L108.293 306.165C108.556 306.44 108.702 306.805 108.702 307.185C108.702 307.565 108.556 307.931 108.293 308.206C106.512 310.098 104.333 311.575 101.914 312.531C99.3338 313.534 96.5847 314.032 93.8161 314C91.2207 314.026 88.6469 313.526 86.2505 312.531C83.9579 311.569 81.8849 310.153 80.157 308.369C78.2313 306.44 76.7274 304.133 75.7402 301.595C74.6964 298.944 74.169 296.119 74.1861 293.27C74.1663 290.541 74.6948 287.835 75.7402 285.313C76.7293 282.909 78.1576 280.709 79.9523 278.825C81.7289 276.972 83.8556 275.488 86.2097 274.458C88.6313 273.392 91.2516 272.85 93.8983 272.867C96.3001 272.846 98.6806 273.319 100.892 274.255C103.015 275.159 104.944 276.461 106.576 278.09C107.325 278.789 108.01 279.554 108.621 280.375C109.312 281.31 109.889 282.324 110.339 283.395C110.869 284.67 111.267 285.997 111.525 287.353C111.841 289.035 111.992 290.743 111.975 292.454C111.968 293.872 111.886 295.289 111.729 296.698C111.727 296.883 111.686 297.065 111.609 297.233C111.532 297.402 111.42 297.552 111.282 297.675C111.143 297.798 110.981 297.89 110.804 297.947C110.628 298.003 110.441 298.023 110.257 298.003L84.9826 298.004ZM93.6523 282.416C91.6046 282.334 89.5975 283.002 88.0087 284.293C86.5532 285.52 85.4756 287.133 84.9004 288.945H102.077C101.474 287.199 100.449 285.63 99.0916 284.375C97.6072 283.033 95.653 282.33 93.6523 282.416Z" fill="#17E2AD"/>
<path d="M145.428 309.838C143.85 310.987 142.149 311.959 140.356 312.735C138.558 313.554 136.607 313.985 134.631 314C131.934 314.028 129.261 313.5 126.779 312.449C124.438 311.457 122.334 309.983 120.603 308.124C118.853 306.222 117.479 304.007 116.554 301.595C115.554 298.991 115.055 296.222 115.082 293.433C115.062 290.704 115.591 287.998 116.636 285.476C117.636 283.055 119.079 280.842 120.889 278.947C122.673 277.082 124.797 275.572 127.146 274.499C129.546 273.405 132.156 272.848 134.795 272.867C136.745 272.876 138.671 273.308 140.438 274.132C142.198 274.921 143.87 275.892 145.428 277.029V274.581C145.426 274.377 145.464 274.174 145.541 273.985C145.618 273.796 145.733 273.624 145.878 273.479C146.022 273.335 146.195 273.221 146.384 273.144C146.574 273.067 146.777 273.028 146.982 273.031H153.362C153.573 273.001 153.788 273.02 153.99 273.088C154.192 273.155 154.376 273.268 154.527 273.419C154.678 273.569 154.791 273.752 154.859 273.954C154.926 274.156 154.946 274.371 154.916 274.581V312.287C154.946 312.497 154.926 312.712 154.859 312.914C154.791 313.115 154.678 313.299 154.527 313.449C154.376 313.6 154.192 313.713 153.99 313.78C153.788 313.847 153.573 313.867 153.362 313.837H146.981C146.777 313.839 146.574 313.801 146.384 313.724C146.194 313.646 146.022 313.532 145.877 313.388C145.733 313.244 145.618 313.072 145.541 312.883C145.464 312.693 145.425 312.491 145.428 312.287V309.838ZM124.979 293.433C124.968 294.848 125.246 296.251 125.797 297.555C126.324 298.807 127.072 299.954 128.006 300.942C128.924 301.915 130.021 302.705 131.236 303.268C132.452 303.837 133.779 304.129 135.121 304.125C136.505 304.144 137.875 303.851 139.129 303.268C140.32 302.703 141.389 301.913 142.278 300.942C143.183 299.955 143.891 298.806 144.364 297.555C145.345 294.895 145.345 291.972 144.364 289.312C143.89 288.061 143.182 286.912 142.278 285.925C141.389 284.953 140.32 284.164 139.129 283.599C137.875 283.016 136.505 282.722 135.121 282.742C133.778 282.737 132.452 283.03 131.236 283.599C130.021 284.162 128.924 284.951 128.006 285.925C127.072 286.913 126.324 288.06 125.797 289.312C125.246 290.616 124.968 292.018 124.979 293.433V293.433Z" fill="#17E2AD"/>
<path d="M170.374 312.286C170.404 312.497 170.384 312.712 170.317 312.914C170.25 313.115 170.136 313.299 169.985 313.449C169.835 313.599 169.651 313.713 169.449 313.78C169.246 313.847 169.031 313.867 168.82 313.837H162.44C162.235 313.839 162.032 313.801 161.843 313.723C161.653 313.646 161.481 313.532 161.336 313.388C161.192 313.243 161.077 313.072 161 312.882C160.923 312.693 160.884 312.491 160.886 312.286V274.581C160.884 274.377 160.922 274.174 161 273.985C161.077 273.796 161.191 273.624 161.336 273.479C161.481 273.335 161.653 273.221 161.843 273.144C162.032 273.067 162.235 273.028 162.44 273.031H168.82C169.031 273.001 169.246 273.02 169.448 273.088C169.651 273.155 169.834 273.268 169.985 273.419C170.136 273.569 170.249 273.752 170.317 273.954C170.384 274.156 170.404 274.371 170.374 274.581V277.601C172.025 276.231 173.855 275.092 175.814 274.214C177.697 273.339 179.748 272.88 181.825 272.867C183.882 272.908 185.894 273.47 187.674 274.5C189.644 275.57 191.316 277.113 192.54 278.988C194.386 277.129 196.545 275.609 198.92 274.5C201.17 273.433 203.627 272.875 206.118 272.867C207.922 272.858 209.712 273.191 211.393 273.846C213.011 274.471 214.485 275.415 215.728 276.622C216.976 277.848 217.975 279.303 218.673 280.906C219.425 282.644 219.802 284.522 219.778 286.415V312.287C219.808 312.497 219.788 312.712 219.721 312.914C219.653 313.115 219.539 313.299 219.389 313.449C219.238 313.6 219.054 313.713 218.852 313.78C218.649 313.847 218.434 313.867 218.223 313.837H211.843C211.638 313.839 211.435 313.801 211.246 313.724C211.056 313.646 210.884 313.532 210.739 313.388C210.595 313.243 210.48 313.072 210.403 312.883C210.326 312.693 210.287 312.491 210.289 312.287V289.517C210.405 287.672 209.886 285.843 208.817 284.333C208.289 283.71 207.622 283.219 206.869 282.9C206.116 282.581 205.299 282.443 204.482 282.497C203.289 282.497 202.107 282.732 201.006 283.191C199.919 283.634 198.921 284.27 198.061 285.068C197.207 285.869 196.513 286.825 196.016 287.884C195.502 288.954 195.237 290.125 195.239 291.312L195.076 312.287C195.106 312.497 195.086 312.712 195.019 312.914C194.951 313.115 194.838 313.299 194.687 313.449C194.536 313.6 194.353 313.713 194.15 313.78C193.948 313.847 193.733 313.867 193.522 313.837H187.142C186.937 313.839 186.734 313.801 186.544 313.724C186.355 313.647 186.183 313.533 186.038 313.388C185.893 313.244 185.778 313.072 185.701 312.883C185.624 312.694 185.585 312.491 185.587 312.287V289.517C185.703 287.672 185.184 285.843 184.115 284.333C183.588 283.71 182.92 283.219 182.167 282.9C181.414 282.581 180.597 282.443 179.78 282.497C178.587 282.497 177.405 282.732 176.304 283.191C175.217 283.634 174.22 284.27 173.36 285.068C172.506 285.869 171.812 286.824 171.315 287.884C170.801 288.954 170.536 290.125 170.538 291.312L170.374 312.286Z" fill="#17E2AD"/>
<path d="M276.786 281.681L268.361 312.694C268.225 313 268.015 313.267 267.748 313.469C267.513 313.687 267.209 313.817 266.889 313.837H260.018C259.686 313.864 259.355 313.772 259.085 313.578C258.815 313.383 258.624 313.099 258.546 312.776L242.596 258.748C242.508 258.505 242.48 258.244 242.516 257.988C242.551 257.732 242.649 257.489 242.801 257.279C242.951 257.09 243.145 256.94 243.365 256.841C243.586 256.741 243.827 256.696 244.069 256.709H251.757C252.52 256.709 253.065 257.307 253.393 258.504L263.454 293.107L273.105 257.851C273.233 257.552 273.429 257.286 273.678 257.075C273.92 256.843 274.242 256.712 274.577 256.709H279.321C279.657 256.712 279.979 256.843 280.221 257.075C280.469 257.287 280.664 257.552 280.793 257.851L290.608 293.026L300.423 258.422C300.751 257.279 301.296 256.708 302.06 256.709H309.83C310.071 256.696 310.312 256.742 310.533 256.841C310.753 256.94 310.947 257.09 311.098 257.279C311.249 257.489 311.346 257.732 311.382 257.988C311.417 258.244 311.39 258.505 311.302 258.748L295.189 312.776C295.11 313.099 294.919 313.383 294.649 313.578C294.379 313.772 294.048 313.864 293.716 313.837H286.846C286.51 313.833 286.188 313.702 285.946 313.469C285.697 313.259 285.502 312.994 285.374 312.694L276.786 281.681Z" fill="#17E2AD"/>
<path d="M317.601 298.004C318.313 299.841 319.515 301.45 321.076 302.656C322.606 303.845 324.496 304.478 326.434 304.451C327.884 304.455 329.323 304.206 330.687 303.717C331.961 303.28 333.131 302.585 334.123 301.676C334.273 301.545 334.448 301.446 334.638 301.383C334.827 301.32 335.027 301.295 335.226 301.309C335.611 301.327 335.976 301.487 336.249 301.758L340.911 306.165C341.174 306.44 341.32 306.805 341.32 307.185C341.32 307.565 341.174 307.93 340.911 308.205C339.13 310.098 336.951 311.575 334.531 312.531C331.951 313.533 329.203 314.032 326.434 313.999C323.838 314.025 321.264 313.526 318.868 312.531C316.575 311.569 314.502 310.153 312.774 308.368C310.849 306.439 309.345 304.133 308.357 301.595C307.314 298.944 306.787 296.118 306.804 293.27C306.784 290.54 307.312 287.835 308.357 285.312C309.347 282.908 310.776 280.708 312.57 278.825C314.347 276.971 316.473 275.487 318.827 274.458C321.249 273.392 323.869 272.85 326.516 272.866C328.918 272.846 331.298 273.318 333.509 274.254C335.632 275.159 337.562 276.461 339.194 278.09C339.943 278.789 340.627 279.553 341.238 280.375C341.929 281.31 342.506 282.324 342.956 283.395C343.486 284.671 343.884 285.997 344.143 287.353C344.458 289.035 344.609 290.743 344.592 292.454C344.585 293.872 344.504 295.289 344.346 296.698C344.344 296.883 344.303 297.065 344.226 297.233C344.149 297.402 344.038 297.552 343.899 297.675C343.761 297.798 343.598 297.89 343.422 297.947C343.245 298.003 343.059 298.023 342.874 298.004H317.601ZM326.271 282.416C324.223 282.334 322.216 283.001 320.627 284.293C319.171 285.519 318.094 287.132 317.519 288.945H334.694C334.091 287.199 333.066 285.63 331.709 284.375C330.225 283.034 328.271 282.33 326.271 282.416Z" fill="#17E2AD"/>
<path d="M349.417 254.096C349.411 253.897 349.447 253.699 349.525 253.516C349.603 253.333 349.719 253.169 349.867 253.035C350.169 252.763 350.565 252.616 350.972 252.627H357.352C357.759 252.617 358.154 252.763 358.456 253.035C358.603 253.169 358.72 253.333 358.798 253.516C358.875 253.699 358.912 253.897 358.906 254.096V312.286C358.936 312.497 358.916 312.712 358.849 312.914C358.781 313.115 358.668 313.299 358.517 313.449C358.366 313.599 358.183 313.713 357.98 313.78C357.778 313.847 357.563 313.867 357.352 313.837H350.972C350.767 313.839 350.564 313.801 350.374 313.724C350.185 313.647 350.012 313.533 349.868 313.388C349.723 313.244 349.608 313.072 349.531 312.883C349.454 312.693 349.415 312.491 349.417 312.286V254.096Z" fill="#17E2AD"/>
<path d="M366.512 254.096C366.505 253.897 366.541 253.699 366.619 253.516C366.697 253.333 366.814 253.169 366.961 253.035C367.263 252.763 367.659 252.616 368.066 252.627H374.446C374.853 252.617 375.248 252.763 375.55 253.035C375.698 253.169 375.814 253.333 375.892 253.516C375.97 253.699 376.006 253.897 376 254.096V312.286C376.03 312.497 376.01 312.712 375.943 312.914C375.876 313.115 375.762 313.299 375.611 313.449C375.461 313.599 375.277 313.713 375.075 313.78C374.872 313.847 374.657 313.867 374.446 313.837H368.066C367.861 313.839 367.658 313.801 367.469 313.724C367.279 313.647 367.107 313.533 366.962 313.388C366.817 313.244 366.703 313.072 366.625 312.883C366.548 312.693 366.509 312.491 366.512 312.286V254.096Z" fill="#17E2AD"/>
<path d="M123.034 351.838C123.581 352.233 124.152 352.665 124.745 353.135C125.332 353.6 125.874 354.119 126.365 354.684C126.853 355.248 127.261 355.876 127.576 356.552C127.9 357.259 128.064 358.029 128.055 358.806C128.086 359.586 127.946 360.363 127.644 361.083C127.325 361.833 126.842 362.503 126.229 363.042C125.523 363.688 124.703 364.198 123.81 364.545C122.794 364.878 121.728 365.032 120.66 365C119.305 364.97 117.971 364.668 116.735 364.112C115.364 363.538 114.087 362.763 112.946 361.812L115.32 358.624C115.837 358.989 116.316 359.323 116.758 359.626C117.191 359.925 117.64 360.199 118.105 360.446C118.549 360.696 119.025 360.888 119.519 361.015C120.04 361.152 120.577 361.221 121.117 361.22C121.559 361.227 121.999 361.158 122.418 361.015C122.831 360.855 123.199 360.597 123.491 360.264C123.831 359.82 124.008 359.273 123.992 358.715C123.975 358.362 123.856 358.022 123.649 357.735C123.4 357.362 123.109 357.018 122.782 356.711C122.414 356.362 122.025 356.035 121.618 355.732C121.193 355.413 120.797 355.117 120.432 354.844C119.792 354.389 119.161 353.925 118.538 353.454C117.913 352.984 117.266 352.446 116.597 351.838C115.934 351.258 115.391 350.554 115 349.765C114.648 348.97 114.476 348.107 114.498 347.238C114.486 346.438 114.674 345.647 115.046 344.938C115.407 344.259 115.913 343.668 116.529 343.207C117.162 342.732 117.872 342.37 118.629 342.137C119.404 341.894 120.213 341.771 121.026 341.772C122.897 341.784 124.734 342.27 126.365 343.184L124.722 346.646C124.021 346.372 123.428 346.137 122.942 345.939C122.358 345.726 121.738 345.626 121.116 345.644C120.872 345.647 120.627 345.669 120.386 345.712C120.112 345.758 119.844 345.834 119.587 345.939C119.34 346.039 119.115 346.186 118.925 346.372C118.736 346.57 118.623 346.828 118.606 347.101C118.577 347.553 118.673 348.003 118.882 348.404C119.091 348.806 119.406 349.142 119.792 349.378C120.401 349.864 120.949 350.289 121.437 350.653C121.922 351.018 122.455 351.413 123.034 351.838Z" fill="#0BAF80"/>
<path d="M136.316 342H140.881V335.169H144.761V342H150.01V345.644H144.761V364.772H140.881V345.644H136.316V342Z" fill="#0BAF80"/>
<path d="M176.939 342V352.658C177.004 354.714 176.735 356.768 176.14 358.738C175.684 360.146 174.911 361.431 173.881 362.496C173.086 363.257 172.148 363.853 171.12 364.248C169.99 364.673 168.789 364.882 167.582 364.864C164.721 364.864 162.5 364.059 160.918 362.449C159.959 361.471 159.268 360.263 158.909 358.943C158.39 356.936 158.159 354.865 158.224 352.794V342H162.105V353.796C162.065 354.974 162.219 356.151 162.561 357.28C162.802 358.045 163.225 358.74 163.794 359.307C164.819 360.264 166.177 360.786 167.582 360.764C168.329 360.761 169.07 360.631 169.773 360.377C170.493 360.126 171.137 359.695 171.644 359.125C172.142 358.566 172.495 357.893 172.671 357.166C172.956 356.066 173.087 354.932 173.059 353.796V342H176.939Z" fill="#0BAF80"/>
<path d="M203.642 361.584C202.69 362.523 201.596 363.307 200.401 363.907C199.189 364.536 197.842 364.864 196.476 364.864C194.978 364.881 193.493 364.586 192.117 363.998C190.819 363.44 189.653 362.618 188.693 361.584C187.716 360.523 186.949 359.286 186.433 357.94C185.876 356.487 185.597 354.942 185.612 353.386C185.601 351.863 185.896 350.353 186.479 348.945C187.035 347.599 187.831 346.364 188.83 345.302C189.814 344.258 190.992 343.415 192.299 342.82C193.638 342.21 195.095 341.899 196.567 341.909C197.919 341.905 199.252 342.233 200.447 342.865C201.623 343.474 202.701 344.258 203.642 345.189V330.614H207.522V364.773H203.642V361.584ZM189.72 353.386C189.715 354.362 189.901 355.329 190.267 356.233C190.611 357.095 191.106 357.889 191.728 358.578C192.338 359.248 193.075 359.79 193.897 360.172C194.731 360.567 195.643 360.769 196.566 360.764C197.5 360.772 198.425 360.581 199.279 360.205C200.133 359.828 200.897 359.273 201.519 358.578C202.125 357.889 202.597 357.094 202.911 356.233C203.58 354.394 203.58 352.378 202.911 350.539C202.596 349.678 202.124 348.883 201.519 348.194C200.897 347.499 200.133 346.944 199.279 346.568C198.425 346.191 197.5 346 196.566 346.008C195.643 346.004 194.731 346.206 193.897 346.6C193.075 346.983 192.338 347.525 191.728 348.194C191.106 348.884 190.612 349.678 190.267 350.539C189.901 351.444 189.715 352.411 189.72 353.386L189.72 353.386Z" fill="#0BAF80"/>
<path d="M218.477 335.169C218.482 334.648 218.667 334.145 219.002 333.745C219.336 333.345 219.799 333.073 220.312 332.975C220.825 332.877 221.355 332.96 221.814 333.208C222.273 333.456 222.632 333.855 222.829 334.338C223.027 334.82 223.051 335.355 222.897 335.853C222.744 336.351 222.423 336.78 221.988 337.069C221.553 337.357 221.032 337.486 220.512 337.435C219.993 337.383 219.508 337.154 219.138 336.785C218.923 336.575 218.754 336.323 218.64 336.045C218.526 335.767 218.471 335.469 218.477 335.169ZM218.796 342H222.677V364.772H218.796L218.796 342Z" fill="#0BAF80"/>
<path d="M232.809 353.386C232.796 351.843 233.083 350.312 233.654 348.877C234.188 347.525 234.978 346.288 235.981 345.233C236.967 344.203 238.146 343.375 239.45 342.796C240.813 342.211 242.281 341.909 243.764 341.909C245.247 341.909 246.715 342.211 248.078 342.796C249.382 343.376 250.56 344.203 251.546 345.233C252.549 346.288 253.34 347.525 253.875 348.877C255.001 351.778 255.001 354.994 253.875 357.895C253.34 359.247 252.549 360.484 251.546 361.538C250.56 362.568 249.382 363.396 248.078 363.975C246.715 364.561 245.247 364.863 243.764 364.863C242.281 364.863 240.813 364.561 239.45 363.975C238.146 363.397 236.967 362.569 235.981 361.538C234.978 360.484 234.188 359.247 233.654 357.895C233.083 356.461 232.796 354.929 232.809 353.386ZM236.918 353.386C236.909 354.374 237.087 355.355 237.442 356.278C237.771 357.142 238.259 357.937 238.88 358.623C239.486 359.29 240.224 359.825 241.048 360.194C241.904 360.57 242.829 360.763 243.764 360.763C244.699 360.763 245.624 360.57 246.48 360.194C247.303 359.825 248.041 359.29 248.648 358.623C249.268 357.937 249.756 357.141 250.086 356.278C250.785 354.413 250.785 352.359 250.086 350.494C249.755 349.63 249.268 348.835 248.648 348.148C248.041 347.482 247.303 346.948 246.48 346.577C245.624 346.202 244.699 346.008 243.764 346.008C242.829 346.008 241.904 346.202 241.048 346.577C240.225 346.947 239.487 347.482 238.88 348.148C238.259 348.835 237.772 349.63 237.442 350.494C237.087 351.417 236.91 352.398 236.918 353.386Z" fill="#0BAF80"/>
</g>
<defs>
<clipPath id="clip0_16_1687">
<rect width="376" height="365" fill="white"/>
</clipPath>
</defs>
</svg>
