<svg width="237" height="258" viewBox="0 0 237 258" fill="none" xmlns="http://www.w3.org/2000/svg">
	 <style>
    path {
      fill: black;
    }
    @media (prefers-color-scheme: dark) {
      path {
        fill: white;
      }
    }
  </style>
<path fill-rule="evenodd" clip-rule="evenodd" d="M56.6285 0.964217C30.7035 16.495 11.8044 41.5113 3.96994 70.7499C-4.02698 100.595 0.159474 132.394 15.6083 159.152C19.89 166.568 24.9395 173.429 30.6378 179.642C58.1399 211.005 102.718 238.587 138.5 251.032L138.498 251.03C141.078 251.92 143.695 252.722 146.348 253.433C175.519 261.249 206.558 257.426 232.931 242.823C236.393 240.906 237.503 236.561 235.58 233.232L219.21 204.877C218.432 203.53 217.292 202.554 215.994 201.979L153 166.522L152.995 166.524C150.867 165.127 148.069 164.969 145.751 166.226C134.95 172.083 124.773 173.042 113.839 171.559C106.458 156.474 104.745 139.173 109.119 122.848C113.746 105.579 124.819 90.7694 140.017 81.4446C143.194 79.4955 144.401 75.3053 142.451 71.9277L126.08 43.5725C125.443 42.4684 124.542 41.5972 123.499 41.0003L123.5 40.9963L64.0295 1.25603C61.9206 -0.239496 59.0341 -0.476849 56.6285 0.964217ZM132.564 243.381C137.43 245.468 142.467 247.216 147.642 248.603C175.561 256.084 205.268 252.425 230.509 238.449C231.475 237.914 231.803 236.689 231.25 235.732L214.88 207.377C214.327 206.42 213.105 206.095 212.134 206.622C212.117 206.631 212.101 206.64 212.084 206.649C209.959 207.799 207.788 208.841 205.579 209.774C190.339 216.209 173.299 217.44 157.151 213.113C138 207.982 121.671 195.452 111.758 178.282C110.305 175.765 109.007 173.179 107.867 170.538C101.277 155.277 99.9307 138.168 104.188 121.937C104.221 121.809 104.255 121.681 104.289 121.553C108.628 105.36 118.256 91.185 131.507 81.1995C133.4 79.773 135.367 78.432 137.403 77.1828C138.226 76.6774 138.582 75.6794 138.287 74.797C138.245 74.6709 138.19 74.5472 138.121 74.4277L121.75 46.0725C121.741 46.0559 121.731 46.0395 121.721 46.0232C121.707 46.0011 121.693 45.9794 121.679 45.958C121.098 45.0905 119.934 44.8104 119.027 45.3563C94.3025 60.2279 76.2805 84.1248 68.7996 112.044C61.1459 140.608 65.1527 171.043 79.9385 196.652C92.0456 217.622 110.568 233.951 132.564 243.381Z" fill="white"/>
</svg>
