<svg width="395" height="292" viewBox="0 0 395 292" fill="none" xmlns="http://www.w3.org/2000/svg">
<path d="M103.785 130.567C103.785 132.116 103.437 133.254 102.742 133.982C102.078 134.74 101.05 135.12 99.659 135.12C98.7421 135.12 97.9516 134.883 97.2876 134.408C96.6553 133.966 96.0862 133.444 95.5803 132.843C95.106 132.243 94.6159 131.705 94.11 131.231C93.6041 130.757 93.035 130.519 92.4027 130.519C91.7387 130.519 90.9166 130.757 89.9365 131.231C88.9879 131.673 87.8339 132.211 86.4743 132.843C85.1147 133.444 83.5022 133.966 81.6368 134.408C79.8029 134.883 77.6687 135.12 75.2341 135.12C70.0804 135.12 65.4642 134.298 61.3855 132.654C57.3384 130.978 53.892 128.606 51.0464 125.54C48.2324 122.441 46.0824 118.758 44.5964 114.489C43.1419 110.221 42.4147 105.462 42.4147 100.214C42.4147 95.218 43.2684 90.6018 44.9758 86.365C46.7148 82.0965 49.1335 78.3814 52.2321 75.2196C55.3307 72.0262 58.9351 69.56 63.0454 67.821C67.1874 66.0504 71.6613 65.1651 76.4672 65.1651C79.7871 65.1651 82.4904 65.4339 84.5772 65.9714C86.664 66.5089 88.3556 67.0622 89.6519 67.6313C90.9482 68.1688 92.0391 68.4376 92.9244 68.4376C93.6832 68.4376 94.3155 68.2005 94.8214 67.7262C95.3589 67.2203 95.8806 66.7302 96.3865 66.256C96.924 65.7817 97.5564 65.5446 98.2836 65.5446C99.3902 65.5446 100.165 65.8449 100.608 66.4457C101.082 67.0464 101.524 68.0582 101.935 69.481L106.536 84.8947C106.884 86.0962 106.726 87.1238 106.062 87.9775C105.398 88.7995 104.465 89.3054 103.263 89.4951C102.252 89.6216 101.319 89.4793 100.465 89.0683C99.6115 88.6573 98.8685 87.8352 98.2362 86.6021C96.4972 83.1241 94.5843 80.3892 92.4975 78.3972C90.4424 76.3737 88.2449 74.9509 85.9052 74.1288C83.5655 73.2751 81.1467 72.8483 78.6489 72.8483C74.9812 72.8483 71.7562 73.8443 68.9738 75.8362C66.223 77.8281 64.0572 80.6895 62.4763 84.4205C60.927 88.1514 60.1524 92.6253 60.1524 97.8423C60.1524 103.628 61.0851 108.592 62.9506 112.734C64.816 116.845 67.2822 120.006 70.3492 122.22C73.4477 124.433 76.8308 125.54 80.4985 125.54C81.8265 125.54 82.9647 125.429 83.9133 125.208C84.8934 124.986 85.6839 124.67 86.2846 124.259C86.8853 123.816 87.328 123.295 87.6126 122.694C87.8971 122.062 88.0394 121.334 88.0394 120.512V112.545C88.0394 111.533 87.8023 110.806 87.328 110.363C86.8537 109.92 86.1581 109.525 85.2412 109.177L83.2967 108.561C82.2533 108.086 81.3996 107.565 80.7357 106.996C80.1033 106.395 79.7871 105.573 79.7871 104.529C79.7871 103.36 80.1507 102.443 80.8779 101.779C81.6368 101.083 82.775 100.735 84.2927 100.735H106.062C107.611 100.735 108.749 101.083 109.476 101.779C110.204 102.443 110.567 103.344 110.567 104.482C110.567 105.462 110.33 106.253 109.856 106.853C109.381 107.454 108.702 107.96 107.816 108.371L106.583 108.798C105.793 109.082 105.129 109.493 104.591 110.031C104.054 110.568 103.785 111.406 103.785 112.545V130.567ZM137.482 122.172C137.482 123.627 137.751 125.129 138.288 126.678C138.826 128.227 139.426 129.824 140.09 131.468C140.786 133.08 141.403 134.693 141.94 136.305C142.478 137.95 142.746 139.594 142.746 141.238C142.746 145.506 141.197 148.937 138.098 151.529C135 154.122 130.826 155.418 125.578 155.418C121.973 155.418 118.97 154.865 116.567 153.759C114.164 152.684 112.361 151.261 111.16 149.49C109.959 147.72 109.358 145.822 109.358 143.799C109.358 141.428 110.022 139.61 111.35 138.345C112.678 137.08 114.432 136.448 116.614 136.448C118.796 136.448 120.519 137.143 121.784 138.535C123.08 139.926 123.728 141.76 123.728 144.036V145.649C123.728 146.913 124.044 147.893 124.677 148.589C125.341 149.285 126.242 149.632 127.38 149.632C128.613 149.601 129.562 149.221 130.226 148.494C130.89 147.767 131.222 146.724 131.222 145.364C131.222 144.163 130.89 142.945 130.226 141.712C129.562 140.511 128.74 139.278 127.759 138.013C126.779 136.78 125.799 135.515 124.819 134.219C123.839 132.922 123.017 131.61 122.353 130.282C121.689 128.923 121.357 127.516 121.357 126.061V102.585C121.357 101.32 121.183 100.451 120.835 99.9765C120.487 99.4706 120.029 99.107 119.46 98.8857L117.895 98.6011C117.231 98.2849 116.693 97.8897 116.282 97.4154C115.903 96.9412 115.713 96.3246 115.713 95.5658C115.713 94.7121 115.966 94.0007 116.472 93.4316C117.009 92.8308 117.847 92.3249 118.985 91.9139L127.854 88.5466C129.214 88.0407 130.352 87.6613 131.269 87.4083C132.186 87.1238 133.119 86.9815 134.067 86.9815C135.111 86.9815 135.933 87.3293 136.533 88.0249C137.166 88.7205 137.482 89.6058 137.482 90.6808V122.172ZM128.139 81.0531C125.167 81.0531 122.795 80.3259 121.025 78.8715C119.286 77.4171 118.416 75.4568 118.416 72.9906C118.416 70.5876 119.286 68.6747 121.025 67.2519C122.795 65.8291 125.167 65.1177 128.139 65.1177C131.143 65.1177 133.514 65.8291 135.253 67.2519C137.023 68.6747 137.909 70.5876 137.909 72.9906C137.909 75.4568 137.023 77.4171 135.253 78.8715C133.514 80.3259 131.143 81.0531 128.139 81.0531ZM193.214 104.245C193.214 106.553 192.518 108.339 191.127 109.604C189.767 110.837 187.823 111.454 185.293 111.454H157.501V106.237H174.053C176.14 106.237 177.183 105.241 177.183 103.249C177.183 100.435 176.504 98.3007 175.144 96.8463C173.816 95.3919 172.172 94.6647 170.212 94.6647C168.662 94.6647 167.24 95.1073 165.943 95.9926C164.679 96.8463 163.667 98.1426 162.908 99.8816C162.181 101.621 161.817 103.818 161.817 106.474C161.817 112.039 163.161 116.228 165.848 119.042C168.536 121.856 172.093 123.263 176.519 123.263C178.954 123.263 181.167 122.789 183.159 121.84C185.183 120.86 186.843 119.627 188.139 118.141C188.866 117.509 189.435 117.066 189.846 116.813C190.289 116.56 190.732 116.449 191.174 116.481C191.712 116.513 192.17 116.734 192.55 117.145C192.961 117.524 193.166 118.188 193.166 119.137C193.135 121.793 192.234 124.306 190.463 126.678C188.692 129.018 186.226 130.915 183.064 132.369C179.934 133.823 176.219 134.551 171.919 134.551C166.955 134.551 162.639 133.586 158.971 131.658C155.304 129.697 152.458 126.978 150.435 123.5C148.443 119.991 147.447 115.959 147.447 111.406C147.447 106.695 148.427 102.49 150.387 98.7908C152.348 95.0915 155.193 92.1827 158.924 90.0643C162.655 87.9142 167.176 86.8392 172.488 86.8392C176.725 86.8392 180.393 87.6297 183.491 89.2106C186.59 90.7598 188.977 92.8466 190.653 95.4709C192.36 98.0952 193.214 101.02 193.214 104.245ZM218.058 108.324C218.058 103.486 218.706 99.4864 220.002 96.3246C221.299 93.1312 223.054 90.7598 225.267 89.2106C227.48 87.6297 229.962 86.8392 232.713 86.8392C235.653 86.8392 237.977 87.7878 239.685 89.6848C241.424 91.5819 242.293 94.3327 242.293 97.9371C242.293 101.289 241.613 103.755 240.254 105.336C238.926 106.917 237.155 107.707 234.942 107.707C232.697 107.707 230.99 107.185 229.82 106.142C228.65 105.067 228.065 103.613 228.065 101.779V99.929C228.065 98.9489 227.828 98.2533 227.354 97.8423C226.911 97.3996 226.31 97.1783 225.551 97.1783C224.634 97.1783 223.765 97.5577 222.943 98.3165C222.121 99.0754 221.457 100.214 220.951 101.731C220.445 103.249 220.192 105.146 220.192 107.422L218.058 108.324ZM219.291 91.1551L220.192 100.925V121.698C220.192 122.994 220.398 123.99 220.809 124.686C221.251 125.381 221.947 125.808 222.895 125.966L226.405 126.441C227.448 126.567 228.207 126.947 228.682 127.579C229.156 128.211 229.393 129.002 229.393 129.95C229.393 130.994 229.045 131.816 228.35 132.416C227.686 133.017 226.769 133.318 225.599 133.318H203.261C202.091 133.318 201.158 133.017 200.463 132.416C199.799 131.816 199.467 130.994 199.467 129.95C199.467 129.128 199.656 128.448 200.036 127.911C200.447 127.373 201 126.883 201.696 126.441L202.786 125.966C203.324 125.682 203.735 125.255 204.02 124.686C204.304 124.085 204.446 123.089 204.446 121.698V102.585C204.446 101.32 204.273 100.451 203.925 99.9765C203.577 99.4706 203.118 99.107 202.549 98.8857L200.984 98.6011C200.352 98.2849 199.83 97.8897 199.419 97.4154C199.008 96.9412 198.803 96.3246 198.803 95.5658C198.803 94.7121 199.056 94.0007 199.561 93.4316C200.099 92.8308 200.937 92.3249 202.075 91.9139L210.944 88.5466C212.145 88.1039 213.157 87.7403 213.979 87.4558C214.833 87.1396 215.56 86.9815 216.161 86.9815C217.015 86.9815 217.694 87.2977 218.2 87.93C218.738 88.5308 219.101 89.6058 219.291 91.1551ZM280.998 123.832L280.286 123.548V77.9704C280.286 76.7057 280.113 75.8362 279.765 75.3619C279.417 74.856 278.959 74.4766 278.389 74.2237L276.824 73.9391C276.16 73.6229 275.623 73.2277 275.212 72.7534C274.832 72.2792 274.643 71.6626 274.643 70.9038C274.643 70.0817 274.896 69.3703 275.401 68.7696C275.939 68.1688 276.777 67.663 277.915 67.2519L286.784 63.932C288.144 63.3945 289.282 62.9993 290.199 62.7464C291.116 62.4934 292.048 62.367 292.997 62.367C294.072 62.367 294.91 62.7148 295.51 63.4103C296.111 64.0743 296.412 64.9596 296.412 66.0663V121.698C296.412 123.089 296.554 124.069 296.838 124.638C297.155 125.208 297.566 125.65 298.072 125.966L299.115 126.441C299.842 126.852 300.395 127.342 300.775 127.911C301.154 128.448 301.344 129.128 301.344 129.95C301.344 130.994 301.012 131.816 300.348 132.416C299.684 133.017 298.767 133.318 297.597 133.318H288.302C286.278 133.318 284.555 132.669 283.132 131.373C281.709 130.077 280.998 128.464 280.998 126.536V123.832ZM246.376 112.023C246.376 106.964 247.404 102.553 249.459 98.7908C251.514 94.9966 254.312 92.072 257.854 90.0168C261.395 87.93 265.379 86.8867 269.805 86.8867C273.631 86.8867 276.998 87.772 279.907 89.5426C282.848 91.2815 285.282 93.8268 287.211 97.1783L282.942 102.632C281.614 100.008 280.097 98.1426 278.389 97.036C276.682 95.8978 274.848 95.3286 272.888 95.3286C271.022 95.3286 269.347 95.9136 267.861 97.0834C266.375 98.2217 265.205 99.9132 264.351 102.158C263.497 104.371 263.071 107.075 263.071 110.268C263.071 113.525 263.513 116.244 264.398 118.426C265.315 120.607 266.533 122.251 268.05 123.358C269.6 124.433 271.339 124.97 273.267 124.97C275.322 124.97 277.204 124.37 278.911 123.168C280.65 121.935 282.152 120.085 283.417 117.619L286.167 121.176C283.606 125.318 280.65 128.591 277.299 130.994C273.947 133.365 270.2 134.551 266.058 134.551C262.264 134.551 258.881 133.602 255.909 131.705C252.969 129.776 250.645 127.12 248.937 123.737C247.23 120.354 246.376 116.449 246.376 112.023ZM352.631 104.245C352.631 106.553 351.935 108.339 350.544 109.604C349.185 110.837 347.24 111.454 344.711 111.454H316.919V106.237H333.47C335.557 106.237 336.601 105.241 336.601 103.249C336.601 100.435 335.921 98.3007 334.561 96.8463C333.233 95.3919 331.589 94.6647 329.629 94.6647C328.08 94.6647 326.657 95.1073 325.361 95.9926C324.096 96.8463 323.084 98.1426 322.325 99.8816C321.598 101.621 321.234 103.818 321.234 106.474C321.234 112.039 322.578 116.228 325.266 119.042C327.953 121.856 331.51 123.263 335.937 123.263C338.371 123.263 340.585 122.789 342.576 121.84C344.6 120.86 346.26 119.627 347.556 118.141C348.283 117.509 348.853 117.066 349.264 116.813C349.706 116.56 350.149 116.449 350.592 116.481C351.129 116.513 351.588 116.734 351.967 117.145C352.378 117.524 352.584 118.188 352.584 119.137C352.552 121.793 351.651 124.306 349.88 126.678C348.11 129.018 345.643 130.915 342.482 132.369C339.351 133.823 335.636 134.551 331.336 134.551C326.372 134.551 322.056 133.586 318.389 131.658C314.721 129.697 311.875 126.978 309.852 123.5C307.86 119.991 306.864 115.959 306.864 111.406C306.864 106.695 307.844 102.49 309.804 98.7908C311.765 95.0915 314.61 92.1827 318.341 90.0643C322.072 87.9142 326.594 86.8392 331.905 86.8392C336.142 86.8392 339.81 87.6297 342.908 89.2106C346.007 90.7598 348.394 92.8466 350.07 95.4709C351.777 98.0952 352.631 101.02 352.631 104.245ZM73.8372 180.621C73.8372 182.139 73.2853 183.415 72.1816 184.45C71.1008 185.485 69.6636 186.002 67.87 186.002C66.0994 186.002 64.7657 185.531 63.8689 184.588C62.9721 183.622 62.5237 182.38 62.5237 180.863V179.828C62.5237 178.724 62.1098 177.85 61.282 177.207C60.4772 176.54 59.3849 176.206 58.0052 176.206C56.8325 176.206 55.7632 176.54 54.7975 177.207C53.8317 177.873 53.0613 178.851 52.4865 180.138C51.9116 181.426 51.6242 182.99 51.6242 184.829C51.6242 187.405 52.0956 189.578 53.0384 191.348C53.9811 193.096 55.2574 194.418 56.867 195.315C58.4996 196.189 60.3277 196.626 62.3513 196.626C64.2368 196.626 65.812 196.327 67.0767 195.729C68.3644 195.108 69.4912 194.292 70.457 193.28C71.0088 192.82 71.4342 192.498 71.7332 192.314C72.0321 192.13 72.331 192.038 72.63 192.038C73.1129 192.061 73.4808 192.245 73.7337 192.59C73.9867 192.912 74.1016 193.418 74.0786 194.108C74.0556 196.039 73.4003 197.856 72.1126 199.558C70.8249 201.259 69.0313 202.627 66.7318 203.662C64.4553 204.697 61.8109 205.214 58.7986 205.214C55.3953 205.214 52.36 204.525 49.6926 203.145C47.0482 201.742 44.9672 199.799 43.4495 197.316C41.9318 194.832 41.173 191.946 41.173 188.658C41.173 185.209 41.9203 182.116 43.415 179.38C44.9327 176.643 47.0597 174.482 49.7961 172.895C52.5555 171.308 55.7862 170.515 59.4884 170.515C62.4547 170.515 65.0072 170.975 67.1457 171.895C69.2842 172.815 70.9283 174.045 72.0781 175.586C73.2508 177.103 73.8372 178.782 73.8372 180.621ZM102.404 199.282V198.247L101.335 197.764V178.897C101.335 177.678 100.99 176.724 100.3 176.034C99.6105 175.321 98.6562 174.965 97.4375 174.965C96.4257 174.965 95.6094 175.183 94.9885 175.62C94.3906 176.034 94.0917 176.574 94.0917 177.241V179.449C94.0917 181.035 93.5398 182.277 92.4361 183.174C91.3553 184.048 89.8147 184.485 87.8141 184.485C86.0895 184.485 84.7903 184.105 83.9165 183.346C83.0657 182.564 82.6403 181.495 82.6403 180.138C82.6403 178.621 83.3071 177.138 84.6408 175.689C85.9975 174.217 88.0211 172.999 90.7115 172.033C93.4019 171.067 96.7246 170.584 100.68 170.584C104.819 170.584 107.889 171.469 109.889 173.24C111.913 174.988 112.924 177.345 112.924 180.311V196.453C112.924 196.867 113.039 197.224 113.269 197.523C113.499 197.799 113.844 197.936 114.304 197.936C114.603 197.936 114.845 197.902 115.029 197.833C115.212 197.741 115.373 197.638 115.511 197.523C115.649 197.431 115.787 197.35 115.925 197.281C116.063 197.189 116.224 197.143 116.408 197.143C116.937 197.143 117.339 197.327 117.615 197.695C117.914 198.04 118.064 198.488 118.064 199.04C118.064 200.029 117.742 200.995 117.098 201.938C116.454 202.88 115.546 203.662 114.373 204.283C113.2 204.904 111.821 205.214 110.234 205.214C108.004 205.214 106.141 204.674 104.646 203.593C103.152 202.489 102.404 201.052 102.404 199.282ZM81.2951 196.936C81.2951 193.901 82.6863 191.463 85.4686 189.624C88.274 187.761 91.9992 186.83 96.6441 186.83C98.0008 186.83 99.254 186.922 100.404 187.106C101.577 187.29 102.542 187.543 103.301 187.865L102.163 191.383C101.519 191.107 100.852 190.889 100.162 190.728C99.4955 190.567 98.7712 190.486 97.9893 190.486C96.5177 190.486 95.3334 190.866 94.4366 191.624C93.5628 192.383 93.1259 193.407 93.1259 194.694C93.1259 196.005 93.5168 197.028 94.2987 197.764C95.1035 198.477 96.1267 198.833 97.3685 198.833C98.4722 198.833 99.484 198.603 100.404 198.143C101.347 197.661 102.117 197.051 102.715 196.315L103.612 199.765C102.37 201.512 100.645 202.857 98.4377 203.8C96.2532 204.743 93.9422 205.214 91.5048 205.214C88.4235 205.214 85.9515 204.456 84.0889 202.938C82.2264 201.397 81.2951 199.397 81.2951 196.936ZM139.011 173.309V195.867C139.011 196.994 139.103 197.787 139.287 198.247C139.471 198.684 139.758 199.017 140.149 199.247L140.977 199.627C141.851 200.155 142.288 200.903 142.288 201.869C142.288 203.501 141.46 204.318 139.804 204.318H126.525C125.674 204.318 124.996 204.099 124.49 203.662C124.007 203.225 123.765 202.627 123.765 201.869C123.765 201.271 123.903 200.776 124.179 200.385C124.478 199.972 124.881 199.615 125.386 199.316L126.18 198.971C126.571 198.741 126.87 198.419 127.077 198.005C127.284 197.592 127.387 196.879 127.387 195.867V181.967C127.387 181.047 127.261 180.414 127.008 180.069C126.755 179.702 126.421 179.437 126.007 179.276L124.869 179.069C124.409 178.816 124.03 178.529 123.731 178.207C123.432 177.862 123.282 177.414 123.282 176.862C123.282 176.241 123.466 175.723 123.834 175.31C124.225 174.873 124.835 174.505 125.662 174.206L132.009 171.757C132.998 171.389 133.826 171.113 134.492 170.929C135.159 170.722 135.838 170.619 136.527 170.619C137.309 170.619 137.919 170.872 138.356 171.377C138.792 171.883 139.011 172.527 139.011 173.309ZM138.045 182.484L135.803 179.863L137.493 178.276C140.437 175.494 143.023 173.504 145.254 172.309C147.507 171.113 149.6 170.515 151.532 170.515C154.452 170.515 156.82 171.492 158.637 173.447C160.454 175.402 161.362 177.965 161.362 181.139V195.867C161.362 196.994 161.454 197.776 161.638 198.212C161.822 198.649 162.109 198.994 162.5 199.247L163.328 199.627C164.202 200.155 164.639 200.903 164.639 201.869C164.639 203.501 163.811 204.318 162.155 204.318H148.91C147.255 204.318 146.427 203.501 146.427 201.869C146.427 200.903 146.864 200.155 147.737 199.627L148.6 199.247C148.991 199.017 149.278 198.684 149.462 198.247C149.646 197.787 149.738 196.994 149.738 195.867V184.002C149.738 182.277 149.336 180.966 148.531 180.069C147.749 179.173 146.668 178.724 145.288 178.724C144.392 178.724 143.449 178.92 142.46 179.311C141.471 179.702 140.448 180.368 139.39 181.311L138.045 182.484ZM160.534 182.449L158.258 179.794L159.741 178.345C162.684 175.517 165.282 173.504 167.536 172.309C169.789 171.113 171.882 170.515 173.814 170.515C176.711 170.515 179.068 171.492 180.884 173.447C182.724 175.402 183.644 177.965 183.644 181.139V195.867C183.644 196.879 183.747 197.592 183.954 198.005C184.161 198.419 184.46 198.741 184.851 198.971L185.61 199.316C186.139 199.661 186.541 200.029 186.817 200.42C187.093 200.788 187.231 201.271 187.231 201.869C187.231 202.627 186.99 203.225 186.507 203.662C186.024 204.099 185.357 204.318 184.506 204.318H171.192C169.537 204.318 168.709 203.501 168.709 201.869C168.709 200.903 169.146 200.155 170.019 199.627L170.847 199.247C171.261 199.017 171.56 198.684 171.744 198.247C171.928 197.787 172.02 196.994 172.02 195.867V184.002C172.02 182.277 171.618 180.966 170.813 180.069C170.008 179.173 168.927 178.724 167.57 178.724C166.674 178.724 165.731 178.931 164.742 179.345C163.753 179.736 162.73 180.426 161.672 181.415L160.534 182.449ZM208.516 173.309V176.793L209.067 177.931V211.94C209.067 212.952 209.171 213.665 209.378 214.079C209.585 214.516 209.884 214.838 210.275 215.045L211.344 215.39C211.873 215.689 212.275 216.033 212.551 216.424C212.85 216.838 213 217.344 213 217.942C213 218.701 212.747 219.299 212.241 219.736C211.758 220.173 211.091 220.391 210.24 220.391H196.478C195.627 220.391 194.949 220.173 194.443 219.736C193.96 219.299 193.718 218.701 193.718 217.942C193.718 217.344 193.856 216.838 194.132 216.424C194.408 216.033 194.811 215.689 195.339 215.39L196.133 215.045C196.524 214.815 196.823 214.493 197.03 214.079C197.237 213.665 197.34 212.952 197.34 211.94V181.967C197.34 181.047 197.214 180.414 196.961 180.069C196.708 179.702 196.363 179.437 195.926 179.276L194.822 179.069C194.339 178.816 193.948 178.529 193.649 178.207C193.373 177.862 193.235 177.414 193.235 176.862C193.235 176.241 193.419 175.723 193.787 175.31C194.178 174.896 194.788 174.528 195.615 174.206L201.548 171.791C202.491 171.377 203.307 171.079 203.997 170.895C204.687 170.711 205.377 170.619 206.067 170.619C206.825 170.619 207.423 170.872 207.86 171.377C208.297 171.883 208.516 172.527 208.516 173.309ZM206.791 182.863L204.79 180.276C206.653 177.241 208.803 174.861 211.24 173.137C213.678 171.389 216.403 170.515 219.415 170.515C222.174 170.515 224.623 171.216 226.762 172.619C228.923 174.022 230.625 175.953 231.867 178.414C233.108 180.874 233.729 183.714 233.729 186.933C233.729 190.613 232.971 193.832 231.453 196.591C229.958 199.328 227.923 201.455 225.348 202.972C222.795 204.467 219.909 205.214 216.69 205.214C213.931 205.214 211.482 204.582 209.343 203.317C207.205 202.03 205.423 200.167 203.997 197.73L207.101 193.763C208.09 195.672 209.205 197.04 210.447 197.868C211.689 198.672 213.011 199.075 214.414 199.075C215.793 199.075 217.024 198.661 218.104 197.833C219.185 196.982 220.024 195.752 220.622 194.142C221.243 192.51 221.554 190.532 221.554 188.21C221.554 185.841 221.232 183.864 220.588 182.277C219.944 180.667 219.059 179.472 217.932 178.69C216.828 177.885 215.575 177.483 214.172 177.483C212.655 177.483 211.275 177.931 210.033 178.828C208.791 179.702 207.711 181.047 206.791 182.863ZM256.329 173.309V195.867C256.329 196.879 256.432 197.592 256.639 198.005C256.869 198.419 257.168 198.741 257.536 198.971L258.295 199.316C258.824 199.615 259.226 199.972 259.502 200.385C259.778 200.776 259.916 201.271 259.916 201.869C259.916 202.627 259.675 203.225 259.192 203.662C258.709 204.099 258.042 204.318 257.191 204.318H243.739C242.888 204.318 242.21 204.099 241.704 203.662C241.221 203.225 240.98 202.627 240.98 201.869C240.98 201.271 241.118 200.776 241.394 200.385C241.693 199.972 242.095 199.615 242.601 199.316L243.394 198.971C243.785 198.741 244.084 198.419 244.291 198.005C244.498 197.592 244.601 196.879 244.601 195.867V181.967C244.601 181.047 244.475 180.414 244.222 180.069C243.969 179.702 243.636 179.437 243.222 179.276L242.083 179.069C241.624 178.816 241.244 178.529 240.945 178.207C240.646 177.862 240.497 177.414 240.497 176.862C240.497 176.241 240.681 175.723 241.049 175.31C241.44 174.873 242.049 174.505 242.877 174.206L249.327 171.757C250.316 171.389 251.143 171.113 251.81 170.929C252.477 170.722 253.156 170.619 253.845 170.619C254.627 170.619 255.237 170.872 255.673 171.377C256.11 171.883 256.329 172.527 256.329 173.309ZM249.637 166.307C247.476 166.307 245.751 165.778 244.463 164.72C243.199 163.663 242.566 162.237 242.566 160.443C242.566 158.696 243.199 157.305 244.463 156.27C245.751 155.235 247.476 154.718 249.637 154.718C251.822 154.718 253.546 155.235 254.811 156.27C256.099 157.305 256.743 158.696 256.743 160.443C256.743 162.237 256.099 163.663 254.811 164.72C253.546 165.778 251.822 166.307 249.637 166.307ZM282.061 173.309V195.867C282.061 196.994 282.153 197.787 282.337 198.247C282.52 198.684 282.808 199.017 283.199 199.247L284.027 199.627C284.9 200.155 285.337 200.903 285.337 201.869C285.337 203.501 284.51 204.318 282.854 204.318H269.471C268.62 204.318 267.942 204.099 267.436 203.662C266.953 203.225 266.712 202.627 266.712 201.869C266.712 201.271 266.849 200.776 267.125 200.385C267.424 199.972 267.827 199.615 268.333 199.316L269.126 198.971C269.517 198.741 269.816 198.419 270.023 198.005C270.23 197.592 270.333 196.879 270.333 195.867V181.967C270.333 181.047 270.207 180.414 269.954 180.069C269.701 179.702 269.367 179.437 268.954 179.276L267.815 179.069C267.355 178.816 266.976 178.529 266.677 178.207C266.378 177.862 266.229 177.414 266.229 176.862C266.229 176.241 266.413 175.723 266.78 175.31C267.171 174.873 267.781 174.505 268.609 174.206L275.059 171.757C276.047 171.389 276.875 171.113 277.542 170.929C278.209 170.722 278.887 170.619 279.577 170.619C280.359 170.619 280.968 170.872 281.405 171.377C281.842 171.883 282.061 172.527 282.061 173.309ZM280.853 182.484L278.577 179.863L280.267 178.276C283.233 175.471 285.866 173.481 288.166 172.309C290.465 171.113 292.604 170.515 294.581 170.515C297.594 170.515 300.031 171.492 301.894 173.447C303.756 175.402 304.688 177.965 304.688 181.139V195.867C304.688 196.879 304.791 197.603 304.998 198.04C305.205 198.454 305.504 198.764 305.895 198.971L306.654 199.316C307.182 199.661 307.585 200.029 307.861 200.42C308.137 200.788 308.275 201.271 308.275 201.869C308.275 202.627 308.033 203.225 307.55 203.662C307.067 204.099 306.389 204.318 305.515 204.318H292.132C290.477 204.318 289.649 203.501 289.649 201.869C289.649 200.903 290.086 200.155 290.96 199.627L291.787 199.247C292.201 199.017 292.5 198.684 292.684 198.247C292.868 197.787 292.96 196.994 292.96 195.867V184.002C292.96 182.3 292.546 181.001 291.718 180.104C290.891 179.184 289.752 178.724 288.304 178.724C287.361 178.724 286.372 178.92 285.337 179.311C284.303 179.679 283.256 180.345 282.199 181.311L280.853 182.484ZM338.811 200.351C336.236 200.052 334.247 199.788 332.844 199.558C331.441 199.328 330.476 199.075 329.947 198.799C329.418 198.523 329.153 198.166 329.153 197.73C329.153 197.408 329.28 197.12 329.533 196.867C329.809 196.591 330.2 196.292 330.705 195.97L329.981 195.384C327.107 195.499 324.842 195.867 323.186 196.488C321.554 197.109 320.404 197.879 319.737 198.799C319.07 199.719 318.737 200.661 318.737 201.627C318.737 202.846 319.07 203.915 319.737 204.835C320.404 205.755 321.691 206.537 323.6 207.18C325.509 207.847 328.291 208.399 331.947 208.836C334.661 209.135 336.799 209.434 338.363 209.733C339.926 210.032 341.03 210.388 341.674 210.802C342.341 211.239 342.674 211.779 342.674 212.423C342.674 213.113 342.398 213.711 341.846 214.217C341.318 214.746 340.409 215.137 339.122 215.39C337.834 215.666 336.063 215.803 333.81 215.803C329.924 215.803 327.279 215.413 325.877 214.631C324.497 213.872 323.807 212.872 323.807 211.63C323.807 210.825 324.106 210.066 324.704 209.353C325.325 208.664 326.187 208.227 327.291 208.043L326.67 207.146C322.209 207.33 319.059 208.031 317.219 209.25C315.402 210.492 314.494 212.17 314.494 214.286C314.494 215.689 315.08 216.907 316.253 217.942C317.426 219 319.243 219.805 321.703 220.356C324.163 220.931 327.325 221.219 331.188 221.219C338.294 221.219 343.686 220.138 347.365 217.977C351.044 215.838 352.884 213.102 352.884 209.767C352.884 207.905 352.401 206.341 351.435 205.076C350.493 203.812 348.986 202.8 346.917 202.041C344.87 201.259 342.168 200.696 338.811 200.351ZM338.363 174.309L341.777 174.896C342.444 173.47 343.042 172.401 343.571 171.688C344.123 170.952 344.778 170.584 345.537 170.584C346.066 170.584 346.491 170.734 346.813 171.033C347.135 171.331 347.446 171.676 347.745 172.067C348.067 172.435 348.48 172.769 348.986 173.068C349.492 173.366 350.171 173.516 351.021 173.516C352.286 173.516 353.263 173.068 353.953 172.171C354.666 171.274 355.023 170.09 355.023 168.618C355.023 166.985 354.505 165.732 353.47 164.858C352.436 163.962 351.159 163.513 349.642 163.513C347.618 163.513 345.744 164.169 344.019 165.479C342.318 166.767 340.881 168.756 339.708 171.446L338.363 174.309ZM349.918 183.346C349.918 181.047 349.274 178.931 347.986 177C346.698 175.068 344.813 173.527 342.329 172.378C339.846 171.228 336.834 170.653 333.292 170.653C329.613 170.653 326.44 171.216 323.773 172.343C321.105 173.447 319.047 175.011 317.598 177.034C316.173 179.035 315.46 181.403 315.46 184.14C315.46 186.554 316.15 188.704 317.529 190.59C318.909 192.452 320.91 193.924 323.531 195.005C326.175 196.062 329.36 196.591 333.085 196.591C336.42 196.591 339.34 196.039 341.846 194.936C344.376 193.832 346.353 192.291 347.779 190.314C349.205 188.336 349.918 186.014 349.918 183.346ZM331.913 174.93C333.867 174.93 335.373 175.919 336.431 177.896C337.489 179.851 338.064 182.403 338.156 185.554C338.202 187.715 337.834 189.382 337.052 190.555C336.27 191.728 335.051 192.314 333.396 192.314C332.2 192.314 331.142 191.877 330.223 191.004C329.326 190.13 328.624 188.877 328.119 187.244C327.613 185.611 327.314 183.645 327.222 181.346C327.199 180.081 327.348 178.977 327.67 178.034C328.015 177.069 328.544 176.31 329.257 175.758C329.97 175.206 330.855 174.93 331.913 174.93Z" fill="#FCD6FF"/>
</svg>
