<svg width="6324" height="1125" viewBox="0 0 6324 1125" fill="none" xmlns="http://www.w3.org/2000/svg">
<path d="M2194.55 159.758C2414.85 159.758 2593.45 339.852 2593.45 562.01C2593.45 784.168 2414.85 964.263 2194.55 964.263C2111.58 964.263 2034.52 938.719 1970.7 895.003L1970.65 1112.74C1970.65 1119.34 1965.21 1124.69 1958.51 1124.69H1807.67C1801.27 1124.7 1796.02 1119.82 1795.56 1113.63L1795.53 1112.74L1795.65 555.621L1795.7 555.617L1795.7 555.358C1799.22 336.268 1976.44 159.758 2194.55 159.758ZM2194.55 329.458C2072.56 329.458 1970.77 432.096 1970.77 562.01C1970.77 691.925 2072.56 794.563 2194.55 794.563C2316.54 794.563 2418.32 691.925 2418.32 562.01C2418.32 432.096 2316.54 329.458 2194.55 329.458Z" fill="black"/>
<path fill-rule="evenodd" clip-rule="evenodd" d="M2872.23 11.9534V940.352C2872.23 946.955 2866.79 952.307 2860.08 952.307H2709.25C2702.54 952.307 2697.1 946.955 2697.1 940.352V11.9703C2697.1 5.36845 2702.54 0.0163764 2709.25 0.0145572L2860.08 4.63545e-07C2866.79 -0.00181871 2872.23 5.35109 2872.23 11.9534C2872.23 11.953 2872.23 11.9538 2872.23 11.9534Z" fill="black"/>
<path d="M6229.21 774.329H6224.5C6172.52 774.329 6130.38 815.809 6130.38 866.977V871.618C6130.38 922.786 6172.52 964.267 6224.5 964.267H6229.21C6281.19 964.267 6323.33 922.786 6323.33 871.618V866.977C6323.33 815.809 6281.19 774.329 6229.21 774.329Z" fill="black"/>
<path d="M3375.05 159.758C3595.36 159.758 3773.96 339.852 3773.96 562.01C3773.96 784.168 3595.36 964.263 3375.05 964.263C3154.75 964.263 2976.15 784.168 2976.15 562.01C2976.15 339.852 3154.75 159.758 3375.05 159.758ZM3375.05 332.152C3252.42 332.152 3151.28 434.146 3151.28 562.01C3151.28 689.875 3252.42 791.869 3375.05 791.869C3497.68 791.869 3598.83 689.875 3598.83 562.01C3598.83 434.146 3497.68 332.152 3375.05 332.152Z" fill="black"/>
<path d="M4237.75 159.753C4458.06 159.753 4636.65 339.847 4636.65 562.005C4636.65 784.163 4458.06 964.258 4237.75 964.258C4017.44 964.258 3838.85 784.163 3838.85 562.005C3838.85 339.847 4017.44 159.753 4237.75 159.753ZM4237.75 332.147C4115.12 332.147 4013.98 434.14 4013.98 562.005C4013.98 689.87 4115.12 791.864 4237.75 791.864C4360.38 791.864 4461.52 689.87 4461.52 562.005C4461.52 434.14 4360.38 332.147 4237.75 332.147Z" fill="black"/>
<path d="M5645.52 153.372C5847.92 153.372 6011.99 314.885 6011.99 514.122V945.923C6011.99 952.525 6006.55 957.878 5999.85 957.878H5849C5842.29 957.878 5836.85 952.525 5836.85 945.923C5836.85 945.923 5836.85 945.923 5836.85 945.923L5836.86 514.122C5836.86 411.136 5752.9 327.454 5648.68 325.791L5645.52 325.766C5540.9 325.766 5455.89 408.418 5454.2 511.007L5454.18 514.122L5454.17 945.923C5454.17 952.525 5448.73 957.877 5442.02 957.878H5291.18C5284.48 957.878 5279.04 952.525 5279.04 945.923C5279.04 945.923 5279.04 945.923 5279.04 945.923L5279.04 514.122C5279.04 411.136 5195.08 327.454 5090.87 325.791L5087.7 325.766C4983.08 325.766 4898.08 408.418 4896.39 511.007L4896.36 514.122L4896.35 945.923C4896.35 952.525 4890.91 957.877 4884.2 957.878H4733.37C4726.66 957.878 4721.23 952.525 4721.23 945.923V514.122C4721.23 314.885 4885.31 153.372 5087.7 153.372C5199.39 153.372 5299.4 202.552 5366.62 280.112C5433.82 202.552 5533.84 153.372 5645.52 153.372Z" fill="black"/>
<path fill-rule="evenodd" clip-rule="evenodd" d="M0.168945 942.74L0.21145 936.953L2.34014 11.9388C2.35531 5.34706 7.78797 0.0112958 14.4843 0.0112958H165.326C172.033 0.0112958 177.471 5.36355 177.471 11.9659C177.471 11.9739 177.471 11.9818 177.471 11.9898L176.253 611.166L547.659 186.808C552.273 181.536 558.991 178.505 566.06 178.505H790.774L464.393 553.565C463.997 554.021 463.786 554.605 463.801 555.204C653.328 585.646 797.979 747.564 797.979 942.74C797.979 948.022 793.629 952.304 788.263 952.304H632.575C627.21 952.304 622.86 948.022 622.86 942.74C622.86 821.075 522.668 722.447 399.074 722.447C277.005 722.447 177.764 818.656 175.333 938.247L175.328 940.38C175.31 946.97 169.878 952.304 163.183 952.304H9.88426C4.51864 952.304 0.168945 948.022 0.168945 942.74Z" fill="black"/>
<path d="M1502.5 556.44H1677.63V940.353C1677.63 946.955 1672.19 952.307 1665.48 952.307H1514.64C1507.94 952.307 1502.5 946.955 1502.5 940.353V556.44ZM1278.72 550.065C1499.03 550.065 1677.63 725.873 1677.63 942.744C1677.63 948.026 1673.28 952.307 1667.91 952.307H1512.22C1507.15 952.307 1502.99 948.488 1502.55 943.614L1502.51 942.744C1502.51 821.079 1402.31 722.45 1278.72 722.45C1156.36 722.45 1056.94 819.116 1054.96 939.101L1054.93 942.744C1054.93 948.026 1050.58 952.307 1045.22 952.307H889.53C884.462 952.307 880.301 948.488 879.854 943.614L879.815 942.744C879.815 725.873 1058.41 550.065 1278.72 550.065ZM1278.72 160.572C1499.03 160.572 1677.63 336.38 1677.63 553.251V562.815H1502.51V553.251C1502.51 431.586 1402.31 332.958 1278.72 332.958C1156.36 332.958 1056.94 429.624 1054.96 549.608L1054.93 553.251C1054.93 558.533 1050.58 562.815 1045.22 562.815H889.53C884.462 562.815 880.301 558.995 879.854 554.121L879.815 553.251C879.815 336.38 1058.41 160.572 1278.72 160.572Z" fill="black"/>
</svg>
