<svg class="icon" viewBox="0 0 48 48" fill="none" xmlns="http://www.w3.org/2000/svg">
  <path fill-rule="evenodd" clip-rule="evenodd" d="M23.8588 4.80005L40.8 14.4V33.8824L23.8588 43.2001L7.20001 33.8824V14.4L23.8588 4.80005ZM12.847 17.7883L23.8587 11.2942L34.8705 17.7883L29.7882 20.8942L23.8587 17.2236L18.494 20.8942V33.8825L12.847 30.4942V17.7883Z" fill="currentColor"></path>
</svg>
<svg width="42" height="46" viewBox="0 0 42 46" fill="none" xmlns="http://www.w3.org/2000/svg">
  <path fill-rule="evenodd" clip-rule="evenodd" d="M9.93206 0.169114C5.38507 2.89304 2.07037 7.28065 0.696286 12.4088C-0.706291 17.6433 0.0279701 23.2206 2.73754 27.9137C3.4885 29.2144 4.37414 30.4176 5.37355 31.5074C10.1971 37.0081 18.0157 41.8456 24.2915 44.0285C24.7438 44.1845 25.2027 44.3248 25.6679 44.4495C30.7842 45.8204 36.228 45.1498 40.8536 42.5887C41.4609 42.2524 41.6555 41.4904 41.3184 40.9065L38.4471 35.9333C38.3108 35.6973 38.111 35.5261 37.8836 35.4252L27.5362 28.5047C27.1629 28.2597 26.6714 28.2323 26.2647 28.4528C24.2983 29.5191 22.0908 30.0188 19.8848 29.9199C18.6593 27.3146 18.3875 24.3483 19.1383 21.5462C19.9499 18.5174 21.892 15.92 24.5576 14.2845C25.1147 13.9427 25.3265 13.2078 24.9845 12.6154L22.1132 7.64217C22.0014 7.44851 21.8434 7.29571 21.6604 7.19102L11.2301 0.220295C10.8602 -0.0420052 10.354 -0.0836344 9.93206 0.169114ZM23.2503 42.6865C24.1039 43.0525 24.9873 43.3592 25.8949 43.6024C30.1795 44.7505 34.7041 44.4026 38.7341 42.6556C39.3098 42.406 39.8755 42.1279 40.4288 41.8215C40.5983 41.7276 40.6558 41.5127 40.5589 41.345L37.6876 36.3718C37.5908 36.204 37.3764 36.147 37.2061 36.2393C36.8306 36.4429 36.4468 36.6273 36.0564 36.7922C33.3834 37.9208 30.3949 38.1367 27.5627 37.3779C24.2037 36.4778 21.3399 34.2803 19.6011 31.2687C19.3323 30.8031 19.0938 30.3238 18.8859 29.834C17.7584 27.1765 17.5339 24.2056 18.2736 21.3858C18.2794 21.3636 18.2853 21.3414 18.2913 21.3192C19.0523 18.4791 20.7409 15.9929 23.0649 14.2415C23.3969 13.9914 23.7419 13.7562 24.099 13.5371C24.2641 13.4358 24.3219 13.2216 24.225 13.0538L21.3537 8.08064C21.3509 8.07564 21.3479 8.07074 21.3448 8.06593C21.3436 8.06412 21.3424 8.06233 21.3412 8.06055C21.2393 7.9084 21.0352 7.85927 20.876 7.95503C16.5397 10.5634 13.3788 14.7546 12.0667 19.6514C10.7244 24.6612 11.4271 29.9991 14.0204 34.4908C16.1438 38.1687 19.3924 41.0326 23.2503 42.6865Z" fill="black"/>
</svg>